<svg id="Layer_1" data-name="Layer 1" xmlns="http://www.w3.org/2000/svg" viewBox="0 0 447.19 325.29"><defs><style>.cls-1{fill:#b02080;}.cls-2{fill:#809d3f;}.cls-3{fill:#b12481;}.cls-4{fill:#060606;}.cls-5{fill:#b01e7f;}.cls-6{fill:#080808;}.cls-7{fill:#819d41;}.cls-8{fill:#141414;}.cls-9{fill:#0a0a0a;}.cls-10{fill:#eaeaea;}.cls-11{fill:#d4d4d4;}.cls-12{fill:#4d4d4d;}</style></defs><path class="cls-1" d="M794.67,1058.35a79.29,79.29,0,0,0-9.47-1.42c-5.64-.8-7.46,2.09-7.92,6.79-.22,2.21,0,4.46-.48,6.77-2.54-4-3.57-8.52-7-11.88-3.7-3.6-8.83.4-13-3.29,9.26-2.17,11-8.2,10.43-16.48-.69-10.26-.16-20.61-.16-31-15.25,3.13-23.18-.41-26.64-12,4.19.73,6.79,4.3,10.71,5.13s7.71,1.21,12.27-1.51c-10.14-.51-18.16-3.41-22.92-11.84-3.91-6.93-3.24-14.21-.88-22.15,2.78,22.82,11.87,25.44,23.79,25.42-10.77-6.79-17.69-15.42-17.82-28.09-.09-8.67,4-19.15,9.42-24.47.58,3.15-.74,6-1.27,8.82-5.11,28.1,14.38,38.65,32.36,39.72,6,.36,12-.17,17.92,1.09,7.29,1.56,13,5.13,15.14,12.79s1.2,14.91-4.94,20.68c-2,1.9-4.21,3.83-8,3.41,1.42-2.24,2.17-4.48.43-7.22-3.31,2.66-6.85,4.94-11.37,4.83s-8.2-2.12-12.15-5.72c0,10.83,0,20.74,0,30.64,0,2.39,1.79,3.5,3.29,4.71C789,1054.29,791.89,1056.28,794.67,1058.35Zm7.63-48.49a6.52,6.52,0,0,0,6.63-6.57c-.09-3.89-2.2-6.13-6.09-6.45A6.14,6.14,0,0,0,796,1003,6.5,6.5,0,0,0,802.3,1009.86Z" transform="translate(-737.65 -798.01)"/><path class="cls-2" d="M1094,1048c4-.22,8-.94,11,3,1.46,2,1.45,3.33-1.22,3.86a13.16,13.16,0,0,1-4.44.56c-9.35-1.48-17.74,3.06-26.66,4.05-14.56,1.61-28.05-1.41-36.41-14.54s-9.27-26.94-.6-40.46c2-3.07.1-3.55-1.79-4.68-7.18-4.26-7.21-5.47.07-9.68s14.81-6,22.9-2.71c1.9.78,3.58.17,5.37,0,9.93-1.08,18.88,1,26.07,8.39a19.69,19.69,0,0,1,6,14.35c0,1.33-.43,2.92.15,3.92.93,1.61,3.3,2.76.71,4.76-2.35,1.81-4.9,1.79-7.5.51-2-1-3-3-4.18-4.82-1.91,1.1-1.35,2.53-1,4,.22.91,2.33,1.57.54,2.74-1.47,1-3.41,1.49-4.54-.08-1.78-2.47-3.76-2-6.08-1.34a12.51,12.51,0,0,1-7.86-.71c-4.24-1.7-6.08.65-7.72,3.84-3.71,7.18-2.14,18.09,3.53,24.32,5.33,5.86,14.69,7.67,22.67,4.62,2.14-.82,2.23-2.19,1.89-3.91-.73-3.68-.14-7.31.34-10.93.46-3.46,2.27-3.63,4.72-1.65,4.13,3.33,3.93,8.06,4.1,12.68l-.53.24c.1,0,.25.13.29.09A1.41,1.41,0,0,0,1094,1048Zm-32.5-52.39a11.5,11.5,0,0,0-2.55,12.94c1.45,3.71,3.37,7.12,9.55,7.57C1059.53,1010.68,1058.14,1004,1061.5,995.61Zm22.1,6.77c-.37-1.88-1.18-3.43-3.46-3.34a2.92,2.92,0,0,0-3,3.2,3.17,3.17,0,0,0,3.34,3.48C1082.33,1005.69,1083.26,1004.22,1083.6,1002.38Z" transform="translate(-737.65 -798.01)"/><path class="cls-3" d="M952.38,879.5c-.51-7.6,1.57-15.32-.82-22.84-.34-1-.39-2.45.69-2.51,3.6-.17,7.22,0,10.83.17.56,0,1,.95.66,1.64-3.56,7.35-1.59,15.12-1.3,22.61.57,14.95-.21,30,2.31,44.83.81,4.78,0,9.65-.86,14.42-1.87,9.85-7.63,16.56-17,19.85-10.29,3.6-20.67,3.65-30.62-1.18C909,953,907.67,945.08,913.05,939s18.92-9.64,26.44-7c3.64,1.29,4.33,4.46,4.17,7.73-.36,7.67-8.43,13.11-15.85,10.88-1.92-.57-3.51-1.45-3.06-3.79.49-2.52,1.61-4.8,4.22-5.64.69-.22,2,.52,2.61,1.19,1,1.15-.45,1.61-1,2.26-.86,1-2.21,1.92-1.14,3.37.92,1.23,2.42,1,3.71.58,3.21-1,5.73-2.91,6.59-6.25s-.18-6-4.17-6.37c-6.34-.59-12.32.57-17.52,4.42s-4.69,10.27,1.1,13.32c9.5,5,28.26,1.71,35.5-6.21,4-4.35,4.73-9.81,5.17-15.32s-.24-11-.85-16.44c-.35-3.1-1.38-3.54-4.14-2.16-7.32,3.64-14.9,6.56-23.1,7.7a28.06,28.06,0,0,1-15.12-1.88c-3.5-1.46-7.36-3.64-10.62.91-.8,1.12-2.37,1-3.64.14a3.35,3.35,0,0,1-1.31-4c1.55-5.13.79-10.48,1.72-15.67.37-2,.83-3.58,3.06-3.85a3.06,3.06,0,0,1,3.74,2.51c.33,1.62.68,2.87,2.73,2.62s1.5-1.84,1.66-3.05q2.42-17.56,4.81-35.12c.2-1.49.48-3,.56-4.46.27-5.52.24-5.58,5.53-5.89,1.69-.1,3.1,1.12,5.2,0,1.44-.78,1.82,1.48,1.31,3.13-3.9,12.47-5.36,25.37-6.62,38.28-.84,8.64.27,9.89,8.8,10.75a27.72,27.72,0,0,0,9.42-.62c7.36-1.8,9.39-4.21,9.43-11.61C952.4,888.84,952.38,884.17,952.38,879.5Zm-40.65,34.37c.22-2.65.41-4.88.59-7.12a10.51,10.51,0,0,1,.74,3c.34,1.43-1.34,3.58,1.09,4.2,1.52.4,2.84-.66,3.73-2,1.21-1.8.73-3.47-.5-5-1.84-2.34-4.46-1.87-6.84-1.62a3.7,3.7,0,0,0-3.19,3.41C907.07,911.38,908.64,913,911.73,913.87Z" transform="translate(-737.65 -798.01)"/><path class="cls-4" d="M1166.08,1026.86c2.32-.33,2.34,2.45,4.2,3,1.51-.74.64-2.25.66-3.38.1-6-.33-12,.13-18a32.77,32.77,0,0,0-5.53-21.65c-2.92-4.36-2.39-8.93.15-13.58s6.25-8.7,7.26-14.94c3.09,5.89,7.91,10.05,10.37,15.42a16.39,16.39,0,0,1-.57,14.89c-4,6.64-4.75,13.55-4.52,21,.41,13.31.45,26.64.51,40,0,1.77,1.39,4.65-1,5.17-2.82.6-6.06,1.23-8.57-2-7.15-9.2-14.57-18.2-21.94-27.22-6-7.29-12-14.51-18.73-22.65,0,16.21-.24,31.11.14,46,.12,4.46,5,5.8,8.15,8,1.13.77,2.62,1,4.79,1.77-4.27,1.1-7.31-.26-10.39-1-7.16-1.8-15.57.84-19.46,5.37-2.83,3.3-1.26,6.08.87,7.7a6.26,6.26,0,0,0,8.21-.24,28.69,28.69,0,0,0,2.81-3.55c-.63-1.7-2.51-1.32-3.51-2.31.12-.22.2-.61.37-.66,2.2-.61,5-1.69,6.24.69,1.8,3.59-1.15,6.79-3.41,8.63s-6.18,4.27-9.53,2.12c-4-2.58-10.15-3.22-10.08-10.27,0-3.09,2-4.39,3.6-6.16a7.2,7.2,0,0,1,3.32-2.11c8.79-2.34,10.9-8.14,10.42-16.74-.71-13-.36-26-.12-39,.12-6.53-1.39-11.45-8.56-12.93a5.46,5.46,0,0,1-1.76-.87c-.19-.13-.21-.53-.48-1.28,8.37.67,16.57,1.55,24.74,0,1.58-.3,2.26,1.26,3,2.26,9.77,12.43,18.2,25.87,28.53,37.88.09.09-.19.51-.3.78a45.5,45.5,0,0,0-5,.14c-4.59.62-7.31-.06-5.42-5.79.54-1.63,1.89-5.28-2.21-5.13-6.25.23-7.59-3.13-6.78-8.32.68-4.33-1.22-5.66-5.2-4.81-3.72.79-4.12-1.22-3.54-4.11.29-1.47.62-2.93.82-4.4.13-.93.4-2.41-1-2.33-4.58.29-9.14.87-13.7,1.33,0,.47.11.94.17,1.41h11.33c-.3,2.51-.21,4.76-.88,6.75-1.19,3.51-.31,5,3.4,4.39,4.86-.83,6.51,1.13,5.87,5.89-.31,2.28-.92,5.27,3,5.47,6,.32,6.94,3.62,5.37,8.66-.42,1.37-.71,3,1.65,3.33,2.88.43,6.9-1.12,8.38,1.35s.62,6.12.83,9.25c0,.23.33.44.43.57a4.07,4.07,0,0,0,.64,0Q1165.22,1033.7,1166.08,1026.86Zm9-42.18c1,1-1.26,4.17,1.54,3.92,2.43-.22,2.14-3.66,2.81-5.73.54-1.66-1.06-1.65-2.15-1.81C1174.3,980.64,1175.19,982.8,1175,984.68Zm-2,.69c-.75-1.36,1.09-4-1.89-4.13-1,0-3.24.29-2.76,1.89.6,2,.72,5.17,3.2,5.61S1172.42,986.57,1173,985.37Z" transform="translate(-737.65 -798.01)"/><path class="cls-5" d="M990,980.24c2.54.6,3.54,1.9,3.47,4.79a275.09,275.09,0,0,0,.8,30.45c1.53-2.17,3.09-4.34,4.6-6.53,3-4.38,6.39-8.58,9-13.21,2.83-5,6.46-7.29,12.29-5.5.68,1.42-.78,2.23-1.42,3.21-5.5,8.33-10.93,16.73-16.75,24.84-2.18,3-1.85,5,.26,7.77,7.28,9.67,14.29,19.53,21.67,29.69-5.67,1.19-9.54.6-12.75-4.41a148.9,148.9,0,0,0-16.58-20.78V1046c0,10.12,0,10.12-10.14,10.12-4.17,0-8.34-.16-12.49.06-2.94.15-4-.59-4-3.81.14-22.65.08-45.31.07-68,0-1.89-.26-3.63,2.67-3.55,2.67.07,2.34,1.7,2.34,3.34,0,1,.06,2,0,3-.13,1.89.63,2.65,2.59,2.64,2.15,0,2.46-1.17,2.39-2.87-.05-1.17.07-2.34,0-3.5-.16-2,.67-2.64,2.6-2.59s3,.23,3.29,2.6-2.36,6.74,2.84,6.15c4.32-.48,1.45-4.53,2.19-6.87a10.67,10.67,0,0,0,.17-2.48l.47,0Z" transform="translate(-737.65 -798.01)"/><path class="cls-6" d="M1012.17,920.4c-12.38.16-24.45.61-37.16,1,1.72-2.17,3.83-2.7,5.65-3.19,4-1.07,5-3.58,5-7.4-.17-14.49-.13-29-.17-43.47,0-8.21,0-8.21-7.8-11.34-.84-.34-1.64-.78-3.75-1.79,4.17,0,6.89-.14,9.59,0a139.46,139.46,0,0,0,22.94-.08c6.77-.7,13.59-.62,20.26,1.5s11.36,5.9,12.32,12.91c1.09,7.89.24,15.67-7.3,20.33-3.74,2.31-3.57,4-1.44,7.13,2.8,4.11,5.09,8.57,7.72,12.81,3,4.86,5.5,10.29,12.06,11.89-6.64.32-13,0-19.42.62-2,.19-2.24-1.73-2.95-2.89-4.92-8.1-9.76-16.25-14.63-24.37-1.67-2.78-8.1-4.57-10.85-3.13-1.42.75-.9,2-.91,3.06,0,5,.19,10,0,15s1.35,8.69,6.8,9.83A24.94,24.94,0,0,1,1012.17,920.4Zm6-53.62c-3.4-.3-3.27-2.37-3.21-4.63.06-2.54,0-5.25-3.78-5-3.53.2-3,3-3.08,5.12s.45,4.33-2.68,4.3c-1.62-2.73,1.11-5.2.22-7.86-1.64.08-3,.52-3.57,2.2-.48,1.31-1.06,2.58-1.6,3.88-1.79-.88-3.61-1.3-3.68-3.74a2.37,2.37,0,0,0-3.1-2.35c-1.7.35-2,1.82-1.47,3.11a2.62,2.62,0,0,1-.81,3.41c-1,.92-1.83,2.15-.59,3.45,1,1,2.36,1.67,3.51.46,1.83-1.93,3.24-.34,4.86.23,3.74,1.32,1.66,5,3,7.28.57,1,1.83,2.51-.24,3.25-1.35.48-2.65,2.59-4.34.64-1-1.11-1.84-1.92-3.33-.86a2.52,2.52,0,0,0-.7,3.87c.48.71,1,1.31.45,2.18-1.15,1.77-1.55,3.46.86,4.45,2.85,1.18,3.14-1.07,4-2.93,1.55-3.34,4.27-3.55,6.65-.73,2.68,3.17,9.19,3.39,11.52,0s3.84-3,4.87.61c.58,2,1.79,2.21,3.36,1.9s2.78-1.18,2-3.13a1.89,1.89,0,0,1,.2-2.23c.94-1.12,1.22-2.4-.2-3.46-1.23-.91-2.34-1-3.45.32s-2.57.73-3.52-.12c-2.33-2.07,1.66-.83,1.33-2.34-.22-1,.46-2.25-.3-3.31-2.91-4,.75-5,3.14-6.28,1.57-.82,4.53-4.61,4.61-6.52.06-1.48,0-2.7-1.72-3-1.91-.37-2.67.81-3.12,2.41-1.11,3.92-2.65,3.64-4.5.45a1.39,1.39,0,0,0-1.6-.84Z" transform="translate(-737.65 -798.01)"/><path class="cls-2" d="M1087.67,866.15c-.55,4.33-1,9.48-1.91,14.54a24,24,0,0,0,1,11.75A61.68,61.68,0,0,1,1090,909c.21,7.14-4.18,11.07-11.33,10.38a13.87,13.87,0,0,1-6.16-1.85c-9.11-5.79-16.79-13-22.16-22.51a13.28,13.28,0,0,1-.28-12.5,50.83,50.83,0,0,1,25-25.44C1082.33,853.62,1087.54,857.29,1087.67,866.15Z" transform="translate(-737.65 -798.01)"/><path class="cls-7" d="M895.3,1020.36c1.16-2,2.24-4.08,3.52-6,.76-1.17,1.27-3.2,2.94-2.85,1.41.29,1.93,2.12,2.49,3.53,1.32,3.35,2.66,6.69,4.34,10.9a23.51,23.51,0,0,0,3.34-9.32c1.05-10.3,7.75-17.41,13.67-25,1.1-1.41,2.5-1.84,3.84-.52,8.6,8.47,18,8.8,28.46,3-4.89,6.35-10.34,11.72-17.61,14.63-3.3,1.33-6.46-1.07-9.37-2.49-3.56-1.72-5.48-.67-7.08,2.63-5.14,10.6-5.27,21.83-4.47,33.2.1,1.32.34,2.64.47,4,.72,7.6,3.1,9.79,10.79,9.91,1,0,2,0,3,0s2.19.19,2.1,1.51c-.11,1.53-1.42,1.06-2.3.93-12-1.85-24-3.27-36.15-.55-.15,0-.41-.43-1-1,2.13-1.58,4.67-1.37,6.91-1.64,2.94-.36,4.13-1.73,3.91-4.57-.75-9.67-3.19-19-5.94-28.21-1-3.28-2.84-3-5.06-1.2Z" transform="translate(-737.65 -798.01)"/><path class="cls-8" d="M825,1001.22c.39-.42.5-.64.6-.64,7.25,0,7.26,0,8.06-7.42.15-1.48.19-3,.27-4.48.16-3,2.23-6.31.63-8.75-1.46-2.24-5.35-.62-8.31-2.27,6.6-2.33,12.83-4.58,19.1-6.72,2-.67,4.08-.77,5.16-3.17a2.61,2.61,0,0,1,4-.71c6.34,5.61,14.58,6.29,22.08,8.87,1.24.43,2.48.89,3.77,1.36-.19.31-.28.67-.46.71-8.57,2.11-8.57,2.11-7.2,10.7,0,.33.12.65.17,1,.44,3.3.46,6.72,1.43,9.85,1.29,4.19,5.6-.52,7.69,1.79.06,1.43-.79,1.76-1.6,1.72-6.12-.24-5.7,3.31-4.78,7.63,3.05,14.46,4.05,29.27,7.59,43.65.47,1.92-.18,2.79-2.21,2.79-6.5,0-13,0-19.49.08-2.21,0-2.45-1.23-2.45-2.83,0-3.5-.65-6.94-1-10.41-.3-3.14-1.68-3.69-4.48-3.72-3.39,0-3.18,2.1-3.34,4.27-1,13.83-1,13.83-14.75,13.22-10-.44-10.07-.45-8.52-10.28,2-13,3.72-26,5.29-39,.44-3.58.29-5.39-3.73-5.41A3.7,3.7,0,0,1,825,1001.22Zm23.63,3.5c-3.49-.16-7-.12-10.47-.56-2.85-.36-3.72.57-4,3.37-.84,8.6-2.21,17.15-2.93,25.77-.51,6-2,11.76-3.1,17.63-.5,2.69-.51,4.59,3.4,4.66s8,.08,12,.23c2.41.09,3.56-.5,3.75-3.18.29-4,1.08-7.9,1.63-11.85.16-1.13.08-2.13,1.7-2.56,6.13-1.63,8.87.12,9.55,6.44.09.83.09,1.67.16,2.5.71,7.69.72,7.68,8.25,7.91,1.67.05,3.32.24,5,.33,7.62.38,7.56.38,6.4-6.77-2.06-12.62-3.81-25.3-6.12-37.87-1.54-8.36.49-6.79-7.73-6.42C860.21,1004.6,854.42,1005.12,848.59,1004.72Zm5.08-24.45v-.14c-4.48,0-9,0-13.45,0-1.3,0-3-.8-3.24,1.75-.49,5.62-1.19,11.22-1.85,16.82-.24,2,.33,3.07,2.6,3.13,7.64.2,15.27.7,22.91.78,3.62,0,8.26.6,10.59-1.32,2.7-2.23-.41-6.72-.31-10.26a14.72,14.72,0,0,0-.08-2c-.87-8.87-.87-8.86-9.7-8.79Z" transform="translate(-737.65 -798.01)"/><path class="cls-9" d="M804.29,848c-.85,1.23-1.66,2.41-3.52,2.15-8.89-1.26-16.82-6.67-17.71-15.52-.78-7.78,6.07-14.51,15.62-15.68,9.28-1.14,18.19.68,27,3.55a140.81,140.81,0,0,0,33.05,6.91c6.72.52,13.36.32,19.45-2.92,5.8-3.08,6.47-5.85,2.9-11.31-1.87-2.87-1.27-5.27.6-7.75,2.17-2.89,5-5.37,5.64-9.4,9.76,15.19.59,35.75-20.06,36.17-15.67.33-30.69-2.65-45.5-7.34-6.85-2.16-13.77-3.7-21.06-2.84-7.58.88-11.4,3.72-11.78,9.08s3.33,9.58,10.42,11.38c1.28.33,2.61.45,3.92.67C803.57,846.08,803.93,847,804.29,848Z" transform="translate(-737.65 -798.01)"/><path class="cls-2" d="M1108.46,924c-4-.4-8.06-.62-11.6-2.75-5.23-3.15-5.47-9.07-.58-12.74,5.88-4.4,19-4.82,25.28-.8,5.07,3.26,5.19,9.28.19,12.78C1117.75,923.23,1113.08,923.59,1108.46,924Z" transform="translate(-737.65 -798.01)"/><path class="cls-2" d="M1107.49,850.86a19.26,19.26,0,0,1,11,2.37,8.7,8.7,0,0,1,4.63,7.74c0,3.57-2.3,5.51-5.06,6.76A25.44,25.44,0,0,1,1095,867c-5.44-2.82-5.69-8.81-.73-12.55C1098.18,851.52,1102.7,850.6,1107.49,850.86Z" transform="translate(-737.65 -798.01)"/><path class="cls-2" d="M1108.43,897.19a18.93,18.93,0,0,1-10.26-2.18c-2.61-1.47-4.38-3.46-4.37-6.71a7,7,0,0,1,4.44-6.66,25.94,25.94,0,0,1,23.94,1c4.2,2.31,4.44,6.71.93,10C1119.09,896.4,1114.06,897.31,1108.43,897.19Z" transform="translate(-737.65 -798.01)"/><path class="cls-4" d="M764.7,1091.05h414v.67H764.74Z" transform="translate(-737.65 -798.01)"/><path class="cls-6" d="M887.92,899.49a11.15,11.15,0,0,1-1.14,3.09c-1.45,1.88-2.11,5.33-4.77,5-1.86-.19-1-3.4-1.49-5.21-3.18-10.77-6.25-21.57-9.36-32.37a5.54,5.54,0,0,0,.66-4.28c-1.46-5.2-.66-10.47-.69-15.71l6,2.9.12,3.06c.55,14.92,2.07,29.63,9.47,43,.15.27.8.28,1.21.41Z" transform="translate(-737.65 -798.01)"/><path class="cls-9" d="M835.8,887.06v19L832.86,901c-3.2-10.52-6.72-20.94-7.7-32-.68-7.73-2.56-15.44,1.67-22.76l.25-1H830l.85,1.38c-2.44,4.29-3.13,8.82-3,13.78.16,4.38,2.64,8.22,2.24,12.59-.47,5.24,1.37,9.7,4.55,13.72Z" transform="translate(-737.65 -798.01)"/><path class="cls-6" d="M818.85,897l.24-7.27.37.06.37,0c1.24,1.24,2.5,2.47,3.72,3.74.58.61.8,2.17,2,1.19.53-.44.29-1.78.4-2.71l.41,0,.41,0,4.17,10.16c.55,5.8,4.14,9.9,7.76,14,.47,1.73,2.67,2.57,2.4,4.68a2.79,2.79,0,0,0-.08.91L830,921c-2.21-6.26-5.06-12.29-6.1-19C823.51,899.54,821.27,898,818.85,897Z" transform="translate(-737.65 -798.01)"/><path class="cls-7" d="M990,955.94c2.37-1.43,5.12-1.52,7.7-1.66,2.3-.13,5.53-.31,3.67,4.06-1.18,2.76,1.35,2.45,2.41,1.73,4.28-2.89,7.6-3.18,11.43,1.24,1.84,2.11,5.94.12,9.74,1.07-3.35,1.12-6,2-8.57,2.87-1.27.43-2.89,1-3.68-.3-2.46-4.17-4.7-1.6-7.38-.28s-5.65,4.83-8-1.33c-1-2.61-4.67.43-7.14.8C990.17,961.41,990.1,958.67,990,955.94Z" transform="translate(-737.65 -798.01)"/><path class="cls-10" d="M830.91,902.18,826.74,892a110,110,0,0,1-3.58-19.88,12.78,12.78,0,0,0-.92-4.31c-3.37-7.5-2.31-14.82.63-22.11l4,.49c-4.23,7.32-2.35,15-1.67,22.76,1,11.1,4.5,21.52,7.7,32A2,2,0,0,0,830.91,902.18Z" transform="translate(-737.65 -798.01)"/><path class="cls-8" d="M848,854c-14-.76-11.77-.72-12,11.57-.07,3.14-.06,6.29-.1,9.43l-1.45.63c-1.81-9.83-5.38-19.68.44-29.39l.22-1,4.9,0,.42,1.23c-.52,1.2-1.08,2.39-1.56,3.61s-1.7,2.47.14,3.14a2.24,2.24,0,0,0,3.15-1.44,47.76,47.76,0,0,1,2.77-5.72l3.49-.35C850.22,848.52,846.39,851.13,848,854Z" transform="translate(-737.65 -798.01)"/><path class="cls-3" d="M911.6,997.26c-4.71-3.83-2.81-8.26-1.06-12.61a54.29,54.29,0,0,1,2.52-4.83c1.64.63.26,2.84,1.38,2.75,2.18-.16,2.68-2.62,4-4.16,3,9,1.28,15-5.27,19Z" transform="translate(-737.65 -798.01)"/><path class="cls-8" d="M1129.17,1111.74c-1.17,4.49.29,8-1,11.23l-1.57,0c0-4.88-.42-9.82.19-14.63.29-2.25,2.55-1.4,3.6.2,2,3,3.8,6.13,6.29,10.18.21-4.53.37-8.06.53-11.58l1.93,0c0,5,.53,10-.23,14.81-.35,2.2-2.76,1.17-3.86-.64Z" transform="translate(-737.65 -798.01)"/><path class="cls-8" d="M822.87,845.72c-2.94,7.29-4,14.61-.63,22.11a12.78,12.78,0,0,1,.92,4.31A110,110,0,0,0,826.74,892l-.41,0-.41,0c-2.85-2.6-5.15-5.23-4.46-9.7.23-1.57.91-4.44-2-5.4h0c-1.07-6-.44-12.13-.67-18.2-.09-2.43.1-5-2.27-6.67.76-2,1.57-4,1.42-6.25l.21-.17-.21-.16,4.93-.13Z" transform="translate(-737.65 -798.01)"/><path class="cls-9" d="M1013.2,1112.9c0,2.75,0,5.51,0,8.26,0,.82,0,1.81-1.09,1.85s-1.12-1-1.12-1.77c0-3.66-.06-7.33,0-11,0-1-.67-2.5,1-2.92a2.73,2.73,0,0,1,3.29,1.54c1.68,2.93,3.54,5.76,5.56,9,2.13-3.76-.4-7.69,2.59-11.47,1.11,5.71.39,10.6.58,15.44,0,.78-.45,1.15-1.23,1.21a2.77,2.77,0,0,1-2.9-1.45c-1.8-3.05-3.68-6.05-5.54-9.07Z" transform="translate(-737.65 -798.01)"/><path class="cls-8" d="M1167.79,1115a3,3,0,0,1,0-1c.77-2.25-2-5.85,1.74-6.74s8-.56,10.06,3.42c1.75,3.36,1.66,7.13-1.21,10.16-2.56,2.71-6,2.43-9.32,2.28-1.49-.06-1.28-1.2-1.28-2.16C1167.78,1119,1167.79,1117,1167.79,1115Zm2-.07c1.54,1.93-2.09,5.86,2.53,6.21,3.74.28,5.75-2,5.77-5.85,0-3.69-1.28-6.18-5.36-6.18C1167.65,1109.1,1171.26,1113.12,1169.75,1114.92Z" transform="translate(-737.65 -798.01)"/><path class="cls-11" d="M818.85,897c2.42.94,4.66,2.51,5,5,1,6.68,3.89,12.71,6.1,19-1,1.36-2,1.27-3,0-1.66-4.16-4-7.54-9-7.94-.12-1.43-.52-2.91.78-4.06,1-.49,3.39,2.91,3.06-.77-.24-2.51-.44-5.47-2.94-7.26C817.58,899.7,817.65,898.38,818.85,897Z" transform="translate(-737.65 -798.01)"/><path class="cls-9" d="M871,916q-.79-5.09-1.61-10.18L868.26,904c1.94-3.25,3-6.86,4.29-10.79,1.36,5,2.68,9.64,3.83,14.28,1.54,6.16,1,6.92-5.38,8.55Z" transform="translate(-737.65 -798.01)"/><path class="cls-8" d="M813.22,1122.84c-4.57.85-4.2-4.43-7.19-5.13a3.6,3.6,0,0,0-.66.63c-.84,1.46,1.08,4.53-1.36,4.47-2.22-.06-.86-3-1-4.59a46.2,46.2,0,0,1,0-7.44c.08-1.42-1-3.65,1.77-3.78s5.46-.31,7.25,2.16c1.19,1.63,1.15,4.15-.45,4.92-4.63,2.24-1.49,4.11-.12,6.16C811.94,1121,812.5,1121.8,813.22,1122.84Zm-6-13.79c-2.08-.27-2.13,1.19-2.06,2.77.06,1.26-.24,2.89,1.75,2.75,1.67-.12,3.23-.79,3.24-2.89C810.16,1109.88,809.1,1109.08,807.22,1109.05Z" transform="translate(-737.65 -798.01)"/><path class="cls-8" d="M1086.19,1122.77c1.63-4.65,3.23-9.22,4.82-13.79.36-1,.94-1.77,2.11-1.72a1.94,1.94,0,0,1,1.82,1.44l4.49,12.6c.21.57.75,1.29-.14,1.59a2.15,2.15,0,0,1-1.76-.36c-5.16-4.31-5.15-4.32-9.89.45C1087.51,1123.11,1087,1122.9,1086.19,1122.77Zm4-5.09c2,.12,4.54,1,4.9-.41.56-2.25-.82-4.59-2.42-6.89C1091.76,1112.91,1091,1115,1090.14,1117.68Z" transform="translate(-737.65 -798.01)"/><path class="cls-8" d="M970.82,1122.85c1.71-4.82,3.26-9.58,5.1-14.23.92-2.31,2.66-2,3.51,0,1.74,4.1,3.15,8.35,4.66,12.54.2.56.59,1.31-.22,1.72a1.44,1.44,0,0,1-1.76-.26c-5-4.47-5.16-4.44-9.77.41C972.21,1123.17,971.74,1123,970.82,1122.85Zm9.16-5.28a14,14,0,0,0-2.53-7c-.93,2.3-2.69,4.5-2,6.63C975.87,1118.7,978.31,1117.91,980,1117.57Z" transform="translate(-737.65 -798.01)"/><path class="cls-6" d="M891,872.13c1.3,6.36,1.83,12.73.22,19.14-.2.79-.19,1.8-1.31,1.64a2.45,2.45,0,0,1-1.38-1.16c-3.2-5.4-2.49-14.61,1.48-20Z" transform="translate(-737.65 -798.01)"/><path class="cls-8" d="M1059.61,1107.29c-.33,1.67-1,1.73-1.65,1.76-1.59.08-3.66-.5-4.1,1.7-.5,2.44,1.75,2.82,3.37,3.5,2.92,1.23,4.27,3.3,2.83,6.27s-4.53,2.86-7.38,2.59c-.34,0-.92-.65-.89-1,.15-1.65,1.34-.86,2.22-.85,1.66,0,3.48.16,3.93-2,.39-1.87-1-2.56-2.43-3.18-2.64-1.15-5.62-2.4-4-6.06C1053.11,1106.57,1056.24,1106.59,1059.61,1107.29Z" transform="translate(-737.65 -798.01)"/><path class="cls-8" d="M878.49,1107.43c-.32,1.56-1,1.6-1.65,1.62-1.62,0-3.66-.44-4.09,1.79s1.51,2.68,3,3.25c3.19,1.2,4.81,3.48,3.1,6.57-1.94,3.47-5.15,2.68-8.51,2.26.69-2.22,1.6-1.69,2.35-1.64,1.68.09,3.55.26,4.1-1.83s-1.12-2.8-2.73-3.49c-2.56-1.09-5.25-2.52-3.68-5.86S875.06,1106.36,878.49,1107.43Z" transform="translate(-737.65 -798.01)"/><path class="cls-10" d="M871.13,850.06c0,5.24-.77,10.51.69,15.71a5.54,5.54,0,0,1-.66,4.28l-5.13-8.5c1-3.79.21-7.89,2-11.54Z" transform="translate(-737.65 -798.01)"/><path class="cls-9" d="M818,913.08c5,.4,7.31,3.78,9,7.94l-10,.17c-.58-4-4.67-1.2-6.25-3.24C812.17,914.85,817.42,917.45,818,913.08Z" transform="translate(-737.65 -798.01)"/><path class="cls-8" d="M903.81,1108.73c4.54-2.26,8.16-1.21,12.22-1-8.42,1.8-3.63,8.08-4.82,12.21-.32,1.08.86,3.11-1.34,3-1.66-.09-.84-1.86-.91-2.87-.14-1.82,0-3.67-.05-5.5C908.79,1111.67,910.42,1107.63,903.81,1108.73Z" transform="translate(-737.65 -798.01)"/><path class="cls-8" d="M767,1113.07c2.3,1.24,2.33-1.28,3.38-2.08,1.59-1.21,2-4,5.86-3.61-6.86,5.3-6.38,10.41.32,15.27-4.76,1.12-5.15-2.64-6.76-4.49-1.92-2.23-2.41-1.49-2.8.77Z" transform="translate(-737.65 -798.01)"/><path class="cls-9" d="M868,850c-1.78,3.65-1,7.75-2,11.54a12.07,12.07,0,0,0-4.93-3.6c-1.06-3.75,1.66-7.19.91-10.91C864.22,847.62,866.52,848,868,850Z" transform="translate(-737.65 -798.01)"/><path class="cls-9" d="M886.23,867c-1.76,2.32-.68,5.3-1.87,7.87-1.74-5.91-4.08-11.62-3.44-17.92l.05-.06c3.14,1.47,4.36,4.64,6.31,7.17C885.64,864.6,886.07,865.86,886.23,867Z" transform="translate(-737.65 -798.01)"/><path class="cls-9" d="M852.94,845.78l4.95.28c1.15,3.41-.53,6.57-.87,9.85l-5.36-1.39C850.65,851.4,852.92,848.76,852.94,845.78Z" transform="translate(-737.65 -798.01)"/><path class="cls-9" d="M859.91,912l4.8-2.92,1.91,7.9-.57,2.08L861,920.07Z" transform="translate(-737.65 -798.01)"/><path class="cls-8" d="M843,1115.26c0,2.14,0,4.29,0,6.43,0,.7-.25,1.31-1.07,1.32a1.11,1.11,0,0,1-1.2-1.23q0-6.45,0-12.88c0-.89.28-1.64,1.38-1.55.94.07.86.87.87,1.47C843,1111,843,1113.11,843,1115.26Z" transform="translate(-737.65 -798.01)"/><path class="cls-7" d="M911.6,997.26l1.57.14c-2.26,6.85-5.49,13.52-3.76,21.15a18.37,18.37,0,0,1-.58-13.28C909.74,1002.59,910.68,999.93,911.6,997.26Z" transform="translate(-737.65 -798.01)"/><path class="cls-11" d="M857,855.91c.34-3.28,2-6.44.87-9.85,1.51-.22,3-.48,4.12,1,.75,3.72-2,7.16-.91,10.91C859.46,857.83,858,857.45,857,855.91Z" transform="translate(-737.65 -798.01)"/><path class="cls-8" d="M841,921.75a2.79,2.79,0,0,1,.08-.91c1.36.12,3.1,1.12,3.92-.4.65-1.2-.72-2.32-1.57-3.29-.63-.71-1.52-1.25-1.5-2.37l10.09.52v.3c-5.66-.31-1.59,4.48-3.28,6.25Z" transform="translate(-737.65 -798.01)"/><path class="cls-11" d="M1168.27,1071c-2.38,0-3.28-1.2-3.31-3.4a2.8,2.8,0,0,1,3-3.17,3.43,3.43,0,0,1,3.62,3.83A2.72,2.72,0,0,1,1168.27,1071Z" transform="translate(-737.65 -798.01)"/><path class="cls-11" d="M1180,1067.84c-.06,2.17-1.23,3.17-3.41,3.18s-3.52-.8-3.51-3.08c0-2,1.16-2.88,3.12-3S1179.72,1065.48,1180,1067.84Z" transform="translate(-737.65 -798.01)"/><path class="cls-11" d="M852.94,845.78c0,3-2.29,5.62-1.28,8.74-1.33.57-2.6.67-3.67-.55-1.6-2.84,2.23-5.45.38-8.3A3.92,3.92,0,0,0,848,845C849.66,844.94,851.47,844.24,852.94,845.78Z" transform="translate(-737.65 -798.01)"/><path class="cls-11" d="M859.91,912l1.07,8.11c-.77,1.24-1.92,1.12-3.1.87a16.89,16.89,0,0,1-1.87-7A5.53,5.53,0,0,1,859.91,912Z" transform="translate(-737.65 -798.01)"/><path class="cls-7" d="M804.29,848c-.36-1-.72-1.9-1.07-2.85a18.47,18.47,0,0,1,7.72.49c.72,1.3-2.13.88-1.12,2.46,1.84,2.88-1,1.34-1.78,1.81C807,848.83,804.91,849.86,804.29,848Z" transform="translate(-737.65 -798.01)"/><path class="cls-4" d="M767,1113.07v5.86a16.22,16.22,0,0,1,.17,2c0,.9.31,2.16-1.24,2.07-1.21-.06-.95-1.14-1-1.87,0-4.56,0-9.13,0-14.28C768.31,1108.67,766.85,1111.08,767,1113.07Z" transform="translate(-737.65 -798.01)"/><path class="cls-4" d="M944.15,1107.32c0,4.85,0,9.7,0,14.55a1,1,0,0,1-1.26,1.1c-.82-.13-.89-.83-.89-1.49,0-4.71,0-9.43,0-14.15Z" transform="translate(-737.65 -798.01)"/><path class="cls-11" d="M810.71,918c1.58,2,5.67-.75,6.25,3.24-2,1.66-4.41.8-6.63.76a2.21,2.21,0,0,1-2.1-2.35C808.19,917.92,809.58,918.05,810.71,918Z" transform="translate(-737.65 -798.01)"/><path class="cls-10" d="M841.92,914.78c0,1.12.87,1.66,1.5,2.37.85,1,2.22,2.09,1.57,3.29-.82,1.52-2.56.52-3.92.4.27-2.11-1.93-3-2.4-4.68C839.21,914.42,840,913.26,841.92,914.78Z" transform="translate(-737.65 -798.01)"/><path class="cls-9" d="M856,914a16.89,16.89,0,0,0,1.87,7l-5,.31c-.3-1.88.93-4-.91-5.65v-.3Z" transform="translate(-737.65 -798.01)"/><path class="cls-11" d="M852,915.6c1.84,1.64.61,3.77.91,5.65-1.22,1.4-2.72.9-4.19.6C850.43,920.08,846.36,915.29,852,915.6Z" transform="translate(-737.65 -798.01)"/><path class="cls-4" d="M990,955.94c.08,2.73.15,5.47.23,8.2l-.27,16.1-.47.06-.47,0c0-7.35-.11-14.7-.13-22.06C988.91,957.33,988.56,956.16,990,955.94Z" transform="translate(-737.65 -798.01)"/><path class="cls-10" d="M818,845.8c.15,2.22-.66,4.23-1.42,6.25-1,.06-2,.09-2.54-1-.37-1.74-.86-3.5.54-5.06l-.1,0Z" transform="translate(-737.65 -798.01)"/><path class="cls-8" d="M814.55,846c-1.4,1.56-.91,3.32-.54,5.06-2-.57-4.39,1.38-6-1.13.74-.47,3.62,1.07,1.78-1.81-1-1.58,1.84-1.16,1.12-2.46Z" transform="translate(-737.65 -798.01)"/><path class="cls-8" d="M818.94,901c2.5,1.79,2.7,4.75,2.94,7.26.33,3.68-2,.28-3.06.77Z" transform="translate(-737.65 -798.01)"/><path class="cls-10" d="M886.23,867c-.16-1.16-.59-2.42,1-2.94a12.75,12.75,0,0,1,3.67,8l-1-.33C888.19,870.62,888.68,867.67,886.23,867Z" transform="translate(-737.65 -798.01)"/><path class="cls-7" d="M819.49,876.92h0l.33,12.88-.37,0-.37-.06C819.14,885.47,818.55,881.17,819.49,876.92Z" transform="translate(-737.65 -798.01)"/><path class="cls-12" d="M834.4,875.6l1.45-.63q0,6-.05,12.09l-1.14-.38A30.8,30.8,0,0,0,834.4,875.6Z" transform="translate(-737.65 -798.01)"/><path class="cls-10" d="M877.24,856l-.12-3.06c2.21.41,3.68,1.54,3.85,3.95l-.05.06Z" transform="translate(-737.65 -798.01)"/><path class="cls-10" d="M866.05,919l.57-2.08L871,916h0C870.47,918.85,868.24,918.9,866.05,919Z" transform="translate(-737.65 -798.01)"/><path class="cls-12" d="M848,845a3.92,3.92,0,0,1,.42.64l-3.49.35-4.5.41L840,845.2Z" transform="translate(-737.65 -798.01)"/><path class="cls-10" d="M887.92,899.47c.15-1.05-.5-2.42,1.07-2.91a.88.88,0,0,1,.74.44c.48,1.59-.86,1.91-1.81,2.49Z" transform="translate(-737.65 -798.01)"/><path class="cls-12" d="M835.06,845.22l-.22,1c-1.37-.19-2.76-.61-4,.38l-.85-1.38Z" transform="translate(-737.65 -798.01)"/><path class="cls-10" d="M868.26,904l1.12,1.86c-.71.17-1.53,1.08-2.09.28S867.13,904.31,868.26,904Z" transform="translate(-737.65 -798.01)"/><path class="cls-10" d="M873,891c-.88-.62-1.24-1.39-.52-2.34a.82.82,0,0,1,.79-.14c1,.9-.1,1.64-.25,2.46Z" transform="translate(-737.65 -798.01)"/><path class="cls-12" d="M822.87,845.72l0-.38,4.18-.12-.25,1Z" transform="translate(-737.65 -798.01)"/><path class="cls-7" d="M818,845.8l-3.52.21c1-1.38,2.26-1,3.52-.54l.21.16Z" transform="translate(-737.65 -798.01)"/><path class="cls-10" d="M837.69,911.23c-.1,0-.25.09-.3,0s-.1-.22-.15-.33l.52-.1Z" transform="translate(-737.65 -798.01)"/><path class="cls-7" d="M896.14,1021.16c-.42.78-1,1.06-1.79.52l1-1.32Z" transform="translate(-737.65 -798.01)"/><path class="cls-10" d="M873,891l.4.43c-.09,0-.2,0-.25-.07A2.16,2.16,0,0,1,873,891Z" transform="translate(-737.65 -798.01)"/><path class="cls-10" d="M1061.5,995.61c-3.36,8.37-2,15.07,7,20.51-6.18-.45-8.1-3.86-9.55-7.57A11.5,11.5,0,0,1,1061.5,995.61Z" transform="translate(-737.65 -798.01)"/><path class="cls-11" d="M1166.08,1026.86q-.87,6.84-1.75,13.68a4.07,4.07,0,0,1-.64,0c-.1-.13-.41-.34-.43-.57-.21-3.13.6-6.86-.83-9.25s-5.5-.92-8.38-1.35c-2.36-.36-2.07-2-1.65-3.33,1.57-5,.61-8.34-5.37-8.66-3.88-.2-3.27-3.19-3-5.47.64-4.76-1-6.72-5.87-5.89-3.71.64-4.59-.88-3.4-4.39.67-2,.58-4.24.88-6.75h-11.33c-.06-.47-.12-.94-.17-1.41,4.56-.46,9.12-1,13.7-1.33,1.36-.08,1.09,1.4,1,2.33-.2,1.47-.53,2.93-.82,4.4-.58,2.89-.18,4.9,3.54,4.11,4-.85,5.88.48,5.2,4.81-.81,5.19.53,8.55,6.78,8.32,4.1-.15,2.75,3.5,2.21,5.13-1.89,5.73.83,6.41,5.42,5.79a45.5,45.5,0,0,1,5-.14Z" transform="translate(-737.65 -798.01)"/><path class="cls-11" d="M1175,984.68c.16-1.88-.73-4,2.2-3.62,1.09.16,2.69.15,2.15,1.81-.67,2.07-.38,5.51-2.81,5.73C1173.77,988.85,1176,985.65,1175,984.68Z" transform="translate(-737.65 -798.01)"/><path class="cls-11" d="M1173,985.37c-.57,1.2.91,3.8-1.45,3.37s-2.6-3.56-3.2-5.61c-.48-1.6,1.73-1.94,2.76-1.89C1174.08,981.4,1172.24,984,1173,985.37Z" transform="translate(-737.65 -798.01)"/><path class="cls-10" d="M1018.19,866.78v-5.84a1.39,1.39,0,0,1,1.6.84c1.85,3.19,3.39,3.47,4.5-.45.45-1.6,1.21-2.78,3.12-2.41,1.72.33,1.78,1.55,1.72,3-.08,1.91-3,5.7-4.61,6.52-2.39,1.25-6,2.23-3.14,6.28.76,1.06.08,2.3.3,3.31.33,1.51-3.66.27-1.33,2.34.95.85,2.38,1.47,3.52.12s2.22-1.23,3.45-.32c1.42,1.06,1.14,2.34.2,3.46a1.89,1.89,0,0,0-.2,2.23c.76,2-.36,2.8-2,3.13s-2.78.13-3.36-1.9c-1-3.57-2.5-4-4.87-.61s-8.84,3.14-11.52,0c-2.38-2.82-5.1-2.61-6.65.73-.87,1.86-1.16,4.11-4,2.93-2.41-1-2-2.68-.86-4.45.56-.87,0-1.47-.45-2.18a2.52,2.52,0,0,1,.7-3.87c1.49-1.06,2.38-.25,3.33.86,1.69,2,3-.16,4.34-.64,2.07-.74.81-2.25.24-3.25-1.32-2.31.76-6-3-7.28-1.62-.57-3-2.16-4.86-.23-1.15,1.21-2.53.57-3.51-.46-1.24-1.3-.39-2.53.59-3.45a2.62,2.62,0,0,0,.81-3.41c-.55-1.29-.23-2.76,1.47-3.11a2.37,2.37,0,0,1,3.1,2.35c.07,2.44,1.89,2.86,3.68,3.74.54-1.3,1.12-2.57,1.6-3.88.61-1.68,1.93-2.12,3.57-2.2.89,2.66-1.84,5.13-.22,7.86,3.13,0,2.6-2.18,2.68-4.3s-.45-4.92,3.08-5.12c3.8-.22,3.84,2.49,3.78,5C1014.92,864.41,1014.79,866.48,1018.19,866.78Zm-4.14,1.37c-2.13.05-2.91.48-2.54,1.71.6,2,1.35,4.2,4,4.24a2.78,2.78,0,0,0,2.69-2.87C1018.14,868.89,1016.27,868.07,1014.05,868.15Zm.29,15.56c-2.12-1.05-3.62-2.89-5.86-1.48a1.78,1.78,0,0,0,0,1.69C1010.14,885.17,1012,885.68,1014.34,883.71Z" transform="translate(-737.65 -798.01)"/><path class="cls-10" d="M830.82,846.59c1.26-1,2.65-.57,4-.38-5.82,9.71-2.25,19.56-.44,29.39a30.8,30.8,0,0,1,.26,11.08c-3.18-4-5-8.48-4.55-13.72.4-4.37-2.08-8.21-2.24-12.59C827.69,855.41,828.38,850.88,830.82,846.59Z" transform="translate(-737.65 -798.01)"/><path class="cls-11" d="M819.83,889.8l-.33-12.88c2.87,1,2.19,3.83,2,5.4-.69,4.47,1.61,7.1,4.46,9.7-.11.93.13,2.27-.4,2.71-1.17,1-1.39-.58-2-1.19C822.33,892.27,821.07,891,819.83,889.8Z" transform="translate(-737.65 -798.01)"/><path class="cls-10" d="M840.38,846.43l4.5-.41a47.76,47.76,0,0,0-2.77,5.72,2.24,2.24,0,0,1-3.15,1.44c-1.84-.67-.57-2.06-.14-3.14S839.86,847.63,840.38,846.43Z" transform="translate(-737.65 -798.01)"/><path class="cls-10" d="M807.22,1109.05c1.88,0,2.94.83,2.93,2.63,0,2.1-1.57,2.77-3.24,2.89-2,.14-1.69-1.49-1.75-2.75C805.09,1110.24,805.14,1108.78,807.22,1109.05Z" transform="translate(-737.65 -798.01)"/><path class="cls-11" d="M1090.14,1117.68c.89-2.64,1.62-4.77,2.48-7.3,1.6,2.3,3,4.64,2.42,6.89C1094.68,1118.7,1092.18,1117.8,1090.14,1117.68Z" transform="translate(-737.65 -798.01)"/><path class="cls-11" d="M980,1117.57c-1.67.34-4.11,1.13-4.56-.33-.66-2.13,1.1-4.33,2-6.63A14,14,0,0,1,980,1117.57Z" transform="translate(-737.65 -798.01)"/><path class="cls-9" d="M1014.05,868.15c2.22-.08,4.09.74,4.16,3.08a2.78,2.78,0,0,1-2.69,2.87c-2.66,0-3.41-2.24-4-4.24C1011.14,868.63,1011.92,868.2,1014.05,868.15Z" transform="translate(-737.65 -798.01)"/><path class="cls-8" d="M1014.34,883.71c-2.39,2-4.2,1.46-5.86.21a1.78,1.78,0,0,1,0-1.69C1010.72,880.82,1012.22,882.66,1014.34,883.71Z" transform="translate(-737.65 -798.01)"/><path class="cls-12" d="M837.11,1029.05a31,31,0,0,0-.08-3.48c-.56-4.25.94-5.7,5-3.86v1.15c-6,.26-2.59,4.5-3,7.11Z" transform="translate(-737.65 -798.01)"/><path class="cls-4" d="M842.06,1022.86v-1.15c1.68.2,4.53-1.16,4.07,2.24-.33,2.41,2,6.16-1.53,6.94-2.06.46-6,2.68-7.48-1.84l1.93.92c1,0,2,0,3,0,1.81.12,3.32,0,3-2.5C844.73,1025.44,846.06,1022.48,842.06,1022.86Z" transform="translate(-737.65 -798.01)"/><path class="cls-9" d="M866.64,984.76c-.3,3.74-.17,7.06-1.09,10-.21.69-4.12.73-6.15.27-5.09-1.13-2.83-5.88-2.25-8C858.69,981.63,863.47,986.55,866.64,984.76ZM858.23,987c0,.83,0,1.66-.11,2.48-.4,3.23.52,4.64,4.24,4.56,4.48-.1,2.4-3,2.53-4.83.4-5.32-3.69-2.38-5.86-3C858.31,986,858,986.3,858.23,987Z" transform="translate(-737.65 -798.01)"/><path class="cls-11" d="M859,986.23l-.8.79C858,986.3,858.31,986,859,986.23Z" transform="translate(-737.65 -798.01)"/></svg>