<svg id="Layer_1" data-name="Layer 1" xmlns="http://www.w3.org/2000/svg" viewBox="0 0 983.37 826.11"><defs><style>.cls-1{fill:#4e2901;}.cls-2{fill:#673602;}.cls-3{fill:#0681fd;}.cls-4{fill:#020202;}</style></defs><path class="cls-1" d="M1461,971q-55,0-109.92,0c-2,0-4.27-.79-6.12.83a99.58,99.58,0,0,0-19.6-.74c-2.61,0-5.24.05-7.83-.18-2.39-.21-2.78,1-2.48,2.88-4.54,1.52-9.12,2.92-13.61,4.58-14.29,5.28-26.68,14-39.31,22.18-.05-7.15-.11-14.31-.13-21.46,0-8.33,0-8.22-8.37-8.21-2.66,0-3.77.46-3.71,3.47.21,11.81.15,23.62.19,35.43-3.14,2.7-6.19,5.5-9.43,8.07-13.52,10.75-27.49,20.78-43.61,27.39,0-23.31-.11-46.62,0-69.93,0-3.35-.6-4.56-4.26-4.46-10,.28-20,.1-30,.09-1.81,0-3.67.29-5.21-1.13-11.33-10.44-25.84-16.44-37.31-26.66-1.9-1.69-4.81-2.76-4.18-6.18L1461,937Z" transform="translate(-477.63 -594.02)"/><path class="cls-2" d="M1461,937l-344.83,0c-.06-12-.05-24-.22-36,0-2.4.68-3.35,3.08-3a29.17,29.17,0,0,0,3.5,0H1461Z" transform="translate(-477.63 -594.02)"/><path class="cls-1" d="M1314.94,1016.89q0,99,0,198c0,66.32-.21,132.64-.08,199,0,5.16-1.32,6.31-6.29,6.19-14.82-.35-29.66-.24-44.49,0-3.38,0-4.89-1-6.22-4.11q-39.87-91.9-80-183.72a13.09,13.09,0,0,0-3.16-4.76v5.08q0,91,.09,182c0,4.23-.75,5.7-5.37,5.57-13.32-.37-26.66-.25-40,0-3.51,0-4.84-.53-4.84-4.52q.19-145,0-290c0-3.91,1.19-4.58,4.76-4.53,15,.19,30,.21,45,0,3.6,0,5.15,1.17,6.51,4.39q39.87,94.35,80,188.59c.81,1.9,1.63,3.8,2.64,6.14,1.31-2.28.8-4.1.8-5.82,0-29.67,2-59.5-.54-88.94-2.49-28.85-1-57.54-1.68-86.29-.64-29-.2-58-.23-87a254.75,254.75,0,0,1,34.37-26.08C1302.15,1022.26,1308.08,1018.59,1314.94,1016.89Z" transform="translate(-477.63 -594.02)"/><path class="cls-3" d="M1314.94,1016.89c-6.86,1.7-12.79,5.37-18.67,9.05A254.75,254.75,0,0,0,1261.9,1052c-11.12,7.89-21.89,16.3-33.79,23-21.87,12.36-44.88,20.9-70.33,21.87-33.54,1.28-62.87-10.53-90.43-28.28-14.61-9.41-27.64-20.86-41.56-31.15-15-11.12-31.32-19.55-50-22.61-21.55-3.52-41.19,2.13-59.92,12.37-14.14,7.73-26.09,18.41-38.74,28.16-18.28,14.1-37.66,26.16-59.64,33.86-34.65,12.14-68.06,8.75-100.77-6.92-20.9-10-39.26-23.75-57.09-38.32-13.08-10.69-26.84-20.27-42.89-26.09-23.34-8.46-45.17-4.17-66.14,7.77a179.06,179.06,0,0,0-24.18,16.77c-4.73,3.84-6.22,3.59-9.5-1.31-5-7.47-9.92-15-15.07-22.36-2.49-3.56-2.28-6,1.37-8.76,14.17-10.85,28.74-20.91,44.9-28.73,20.84-10.08,42.41-10.23,64.44-6.17,27.61,5.1,50,20.19,71.27,37.45,16.7,13.57,33.77,26.45,53.78,35,27.15,11.64,53.79,10.14,80.22-2.11,19.21-8.91,35.73-21.79,52.06-35,19.45-15.76,40.65-28.41,65.25-34.43,31.7-7.75,61.37-1.86,89.7,13.38,17.13,9.23,31.73,21.92,47,33.66,18.67,14.3,38.76,25.85,62.12,30.73,22,4.6,43,1,63.08-8.55,16.12-6.61,30.09-16.64,43.61-27.39,3.24-2.57,6.29-5.37,9.43-8.07l12-9.23c12.63-8.23,25-16.9,39.31-22.18,4.49-1.66,9.07-3.06,13.61-4.58,3.43-1,7.45.39,10.31-2.7a99.58,99.58,0,0,1,19.6.74c28.79,4.55,52,20.06,74.24,37.59,4.79,3.78,5,5.18,1.45,10.35q-7.26,10.75-14.48,21.52c-3.18,4.72-4.63,5-9.11,1.32-12.57-10.19-25.47-19.88-40.79-25.61C1342.58,1011.92,1328.74,1011.34,1314.94,1016.89Z" transform="translate(-477.63 -594.02)"/><path class="cls-1" d="M477.77,1270.37q0-72.22-.08-144.46c0-3.73.71-5.07,4.8-5q21.5.42,43,0c4.35-.08,5.79.8,5.76,5.55-.22,38.32,0,76.64-.25,115,0,4.76,1.43,5.63,5.8,5.59,21.33-.22,42.65-.19,64,0,3.52,0,4.39-.9,4.38-4.39-.13-38.82,0-77.64-.18-116.46,0-4.06.81-5.33,5.09-5.24,14.82.29,29.65.2,44.48,0,3.19,0,4.24.7,4.24,4.09q-.13,145.44,0,290.9c0,3.3-.9,4.17-4.18,4.13-15-.18-30-.21-45,0-3.73.05-4.66-.88-4.65-4.64.16-37.48,0-75,.19-112.46,0-4-.64-5.34-5-5.28-21.49.26-43,.22-64.48,0-3.79,0-4.66,1-4.64,4.71.14,37.48,0,75,.19,112.46,0,4-.79,5.3-5.07,5.21q-21.24-.46-42.48,0c-4.64.11-6.06-.79-6-5.8C477.86,1366.33,477.77,1318.35,477.77,1270.37Z" transform="translate(-477.63 -594.02)"/><path class="cls-1" d="M905.14,1420c-17.82,0-35.3,0-52.78,0-2.47,0-3-1.22-3.48-3.2-3.59-13.32-7.4-26.58-10.89-39.92-.82-3.14-2.13-4.06-5.38-4q-37.74.22-75.48,0c-3.39,0-4.88.79-5.76,4.24-3.29,12.88-7,25.64-10.41,38.5-.82,3.07-1.8,4.56-5.53,4.49-17-.28-33.94-.12-51.33-.12,5.8-18.78,11.45-37.18,17.16-55.57q36.9-119,73.75-238c1.28-4.15,2.92-5.78,7.5-5.52,8.47.48,17,.36,25.48,0,3.69-.15,5,1.18,6.08,4.54q22.15,71.92,44.54,143.77,22.59,72.83,45.2,145.65C904.29,1416.45,904.63,1418.06,905.14,1420ZM794.68,1220.5c-9,32.51-17.66,63.86-26.32,95.22a13.59,13.59,0,0,1-.6,2.42c-1.86,3.82.35,3.88,3.25,3.87,15.66-.08,31.31-.18,47,.06,4,.06,4.64-.84,3.57-4.65-6.45-22.85-12.66-45.77-19-68.66C800.06,1239.68,797.5,1230.61,794.68,1220.5Z" transform="translate(-477.63 -594.02)"/><path class="cls-1" d="M994.56,1321.17q6.18-27.15,12.37-54.31,16.1-71,32.19-142c.41-1.8.32-3.87,3.4-3.85,17.65.14,35.3.07,53.45.07-4.15,16.23-8.19,32.12-12.28,48q-31.79,123.12-63.49,246.26c-1,3.83-2.38,4.89-6.23,4.82-13.82-.25-27.66-.18-41.49,0-2.69,0-3.72-.88-4.36-3.36q-37.87-147.3-75.86-294.57a6.8,6.8,0,0,1,.14-1.11H908c12,0,24,.12,36-.09,3.11,0,4.27,1,4.93,3.88q16.47,73.25,33.11,146.45,5.65,25,11.37,49.92Z" transform="translate(-477.63 -594.02)"/><path class="cls-4" d="M895.66,719c5.12,1.77,10.24,3.08,14.89,5.62,22.32,12.2,32,31.73,31.74,56.42-.43,40.68-27.54,67.89-69.33,68.77-35.31.74-70.66.13-106,.3-3.86,0-3.28-2.07-3.28-4.35q0-33.5,0-67,0-89.49-.09-179c0-4.21.73-5.62,5.36-5.58,31.16.24,62.33.09,93.5.14,11.87,0,23.63,1,34.95,4.92,25.51,8.76,40.42,30,41.61,58.71.82,19.92-4.34,37.21-20.52,50.07C911.77,713.37,904,716.45,895.66,719ZM799.3,775.5c0,12.33.13,24.66-.08,37-.06,3.52,1,4.46,4.46,4.42,16.82-.17,33.65,0,50.48-.1A101.93,101.93,0,0,0,874,815c14.65-3,25.93-10.11,30.51-25.29,1.91-6.34,1.84-12.85,1.35-19.33-1.42-18.47-11.37-30.15-29-33.92A64.87,64.87,0,0,0,864,735.11c-20.16-.14-40.33,0-60.48-.17-3.75,0-4.3,1.28-4.25,4.57C799.41,751.5,799.3,763.5,799.3,775.5Zm0-110.49q0,17,0,34c0,2.09-.21,3.91,2.94,3.85,22.63-.43,45.29,1,67.89-.73,19.94-1.49,30.54-11.62,32.41-31.24,2-21.09-5.84-36.42-27.52-41.45a61.35,61.35,0,0,0-13.85-1.57c-19.31,0-38.63.07-57.94-.15-3.59,0-4,1.37-4,4.36C799.38,643,799.3,654,799.3,665Z" transform="translate(-477.63 -594.02)"/><path class="cls-4" d="M1123.22,738.38l58.68,111.41c-1.83.08-3.21.2-4.6.2-9,0-18-.61-27,.2-8.25.75-12.34-2.11-16-9.65-15.41-31.84-31.67-63.27-47.5-94.91-1.36-2.72-2.86-3.79-6-3.75q-22.5.3-45,0c-3.57,0-4.32,1-4.3,4.42.13,32.82,0,65.65.21,98.47,0,4.58-1.29,5.51-5.53,5.33q-12.74-.51-25.49,0c-4.15.17-5.15-.92-5.14-5.11q.23-111,.1-221.94c0-8.16.15-16.33-.07-24.49-.08-3.3.57-4.57,4.27-4.55,32.33.16,64.65.05,97,.12,10.55,0,20.93,1.43,30.79,5.39,27.09,10.89,40.45,31.86,43.19,60.12,1.44,14.75-.29,29.23-6.72,42.88a64.88,64.88,0,0,1-35.3,33.53C1127,736.8,1125.2,737.56,1123.22,738.38Zm-91.61-70.44c0,12,.09,24-.06,36,0,3,.71,4,3.87,4,21.17-.14,42.33.14,63.49-.15,13.86-.19,24.11-6.69,30.07-19.43,3.77-8.06,4.56-16.63,3.91-25.37-1.62-21.83-15.39-34.63-37.18-34.66-19.84,0-39.67.11-59.5-.09-3.8,0-4.76,1-4.68,4.74C1031.76,644.61,1031.61,656.28,1031.61,667.94Z" transform="translate(-477.63 -594.02)"/><path class="cls-4" d="M725.05,850c-12.43,0-24.09-.13-35.75.09-3,.06-3.52-1.55-4.23-3.64-5.53-16.19-11.19-32.33-16.56-48.57-1-3.09-2.38-4-5.58-4q-47.49.2-95,0c-2.94,0-4.27.76-5.24,3.7-5.39,16.23-11.18,32.33-16.56,48.57-1,3.12-2.42,4-5.57,3.9-11.32-.2-22.65-.08-34.53-.08,4.77-13,9.4-25.77,14.08-38.47q39-105.87,78-211.76c1.55-4.23,3.43-6,8.1-5.6a142.29,142.29,0,0,0,19.48,0c4-.25,5.72,1.11,7.08,4.85Q656.21,663.38,680,727.61q21.69,58.89,43.39,117.79C723.89,846.78,724.38,848.16,725.05,850ZM615.84,644.8c-.5.59-.78.78-.87,1.05Q595.85,701.41,576.68,757c-1.29,3.72.94,2.91,2.81,2.91h75.89C642.09,721.22,629,683.13,615.84,644.8Z" transform="translate(-477.63 -594.02)"/><path class="cls-4" d="M1416,850c-12.23,0-24-.14-35.88.1-3.14.06-3.39-1.86-4.07-3.84-5.56-16.18-11.21-32.32-16.61-48.55-1-2.85-2.12-3.83-5.19-3.82q-47.74.2-95.49,0c-3.16,0-4.17,1.14-5.1,3.9-5.42,16.22-11.14,32.35-16.57,48.56-.95,2.81-2.19,3.78-5.2,3.73-11.47-.2-22.94-.08-34.85-.08,6.47-17.66,12.78-34.94,19.15-52.21q36.43-98.85,72.79-197.73c1.62-4.4,3.54-6.25,8.38-5.89a152.71,152.71,0,0,0,19.49,0c3.74-.2,5.45.92,6.77,4.55q30,82.1,60.38,164.09,15.15,41.13,30.26,82.28C1414.81,846.64,1415.34,848.17,1416,850Zm-69.65-90.26c-13.29-38.65-26.36-76.67-39.8-115.78-13.5,39.28-26.58,77.38-39.77,115.78Z" transform="translate(-477.63 -594.02)"/></svg>