<svg id="Layer_1" data-name="Layer 1" xmlns="http://www.w3.org/2000/svg" viewBox="0 0 400.83 168.31"><path d="M696.32,507.19c7.44-5.29,15.15-8.87,22.42-13.18s14.64-8.56,22.18-13v24.74H745V486.46c4.19,6.58,5.87,13.42,9.6,19.45h3.08c.14-.38.42-.77.32-.94-3.46-6.21-6-12.84-9-19.28a6.18,6.18,0,0,0-.83-1.07c1.57-3.1,3.13-6.2,5-9.93L749.81,476c1.57-3.75,3-7.21,4.52-10.76h4c-1.15,2.37-2.15,4.4-3.32,6.82a8.15,8.15,0,0,0,2.78-.41c3.11-1.79,6.07-3.84,9.18-5.61,6.22-3.54,12.58-6.81,18.5-10.88,3.16-2.17,6.88-3.5,10.24-5.4,4.2-2.36,8.29-4.93,12.44-7.38a8,8,0,0,1,1.39-.5c3.44,1.82,6.89,3.55,10.24,5.47,3.11,1.78,6.09,3.8,9.16,5.66,5.44,3.33,11.09,6.29,16.44,9.8,3.22,2.11,6.86,3.54,10.25,5.39,1.78,1,3.42,2.16,4.72,3-.19,2.95-.37,5.77-.55,8.68l-2.61.27v2.63l2.63.43v20.15l2.5,2.5h5.58v-2.69h-3.68v-20l3.57-.2v-2.7l-3.62-.38V471.1a7.68,7.68,0,0,0,3.58,4.33c5.81,3.63,11.82,7,17.77,10.31,7.72,4.32,15.11,9.2,23,13.27,2.48,1.29,4.9,2.7,7.73,4.27-6.93,4-13.54,7.83-20.08,11.73-5.76,3.44-11.4,7-17.16,10.47-4.54,2.69-9.19,5.17-13.76,7.8q-6.06,3.5-12,7.16c-6.77,4.16-13.6,8.21-20.43,12.28-5.88,3.5-11.71,7.09-17.61,10.58-2.93,1.73-6,3.19-8.91,5a3.77,3.77,0,0,1-4.46.06c-2.67-1.56-5.71-2.58-8.13-4.43-4.39-3.35-9.49-5.41-14-8.56-4.8-3.35-10.29-5.68-15.38-8.62s-10.13-6.13-15.21-9.15c-2.66-1.59-5.41-3.05-8.09-4.61q-7.86-4.56-15.68-9.19c-1.88-1.12-3.6-2.54-5.55-3.49-7.27-3.56-14-8-21-12C698.15,507.92,697.49,507.7,696.32,507.19Zm105.44-2.8c3.26,1.51,3.25,1.43,6.71.7a9.46,9.46,0,0,1,3.33.23c1,.17,2,.51,3,.79V465.16h-2.92V480h-7.36L801,483.61c0,5-.07,10.18,0,15.32A44.93,44.93,0,0,0,801.76,504.39Zm-21.58-22.07v4.58h2.88v-3.77h7.71v8h-9.42L780,492.5c0,3.53-.06,7.18,0,10.83a8.71,8.71,0,0,0,1,2.63,22.16,22.16,0,0,0,6.28-.79c1.94-.48,4.25.47,6.54.81V481.47L792.55,480H782.49ZM853,481a10.93,10.93,0,0,0-2.76-.95c-3-.11-6,0-8,0l-3.31,2.47c.11,1.72.19,3.14.26,4.34h2.74c.07-1.31.13-2.43.19-3.59h7.75V491H840c-2.12,4.45-.44,9.13-1.13,13.43l1.38,1.38c2.33.56,4.26-.33,6.29-.64s4.21.5,6.4.83Zm-91.63-.86c-1,2.44.22,4.47.64,6.62,1.16,5.82,3.16,11.44,4.07,17.32.26,1.7,1.75,2.2,3.76,1.87.7-2.52,1.49-5.18,2.18-7.86.55-2.16.51-4.62,1.22-6.5,1.22-3.24,1.27-6.73,2.75-9.85.21-.45-.13-1.17-.21-1.72H773c-1.47,6.27-3,12.62-4.49,19.12-2.45-6.25-2.7-12.91-4.71-19ZM824,505.9V484.18l7.09-1.45v6.13h2.81v-7.44c-.81-1.35-2.21-2-3.4-1.35-3,1.57-5.8.65-8.69,0-.22,0-.53.3-.65.37v25.5Z" transform="translate(-695.08 -441.86)"/><path d="M908.52,511.67l8.68,5.51c-5.94,4-11.93,7.17-17.75,10.56-5.2,3-10.37,6.21-15.7,9.08-4.38,2.36-8.51,5.19-12.81,7.71-2.8,1.64-5.78,3-8.57,4.64-5.23,3.1-10.33,6.41-15.57,9.49-4.41,2.59-9,4.89-13.4,7.48-5.24,3.08-10.27,6.53-15.6,9.44a104.28,104.28,0,0,0-9.27,5.37c-1,.7-2.16,1.26-3.66,2.13-3.23.24-6-2.11-8.94-3.78-3.1-1.76-6.16-3.61-9.29-5.35-6-3.33-11.76-7-17.67-10.46-2.94-1.72-6-3.3-8.94-5-5.84-3.26-11.53-6.79-17.31-10.16-3.07-1.79-6.18-3.56-9.28-5.33-5.64-3.22-11.69-5.79-17.09-9.36-6.63-4.38-13.87-7.71-20.47-12.39.56-2.58,3.37-2.67,4.9-4.19,1-1,2.9-1,4.19-1.32a28.61,28.61,0,0,0,3,2.2q11.87,6.51,23.33,13.7c5,3.13,10.34,5.63,15.44,8.57s10.13,6.13,15.21,9.15c2.67,1.59,5.41,3.05,8.09,4.61,5.24,3,10.45,6.14,15.69,9.18,2.82,1.64,5.7,3.17,8.51,4.82,3.23,1.9,6.41,3.89,9.66,5.86,7.22-4.22,14.62-8.5,22-12.88,5.76-3.43,11.41-7,17.18-10.46,4.4-2.61,9-4.93,13.36-7.55,6.29-3.77,12.43-7.78,18.73-11.54,4.39-2.61,9-4.86,13.39-7.47C895.06,520.06,901.52,516,908.52,511.67Z" transform="translate(-695.08 -441.86)"/><path d="M695.6,544.8l6.57-4c7,3.9,13.52,7.41,19.92,11.21,8.67,5.15,17.54,10,26.21,15.09,3.47,2.06,7,4,10.49,6.11s7.28,3.54,10.54,5.84c6.79,4.77,14.54,7.86,21.22,12.83,3.05,2.27,6.82,3.57,10.22,5.4,1.51.81,2.9,1.83,4.41,2.8A40.51,40.51,0,0,1,816.26,593a79.22,79.22,0,0,0,7.21-4.24c6.11-3.72,12.3-7.29,18.52-10.83,4.06-2.31,7.93-5,11.94-7.38,2.65-1.6,5.43-3,8.08-4.61,5.44-3.32,11-6.52,16.5-9.7,5.22-3,10.36-6.22,15.69-9.06,4.39-2.34,8.52-5.16,12.81-7.7,1.59-.95,3.29-1.7,4.92-2.53l6.28,3.83a20.49,20.49,0,0,1-3.35,2.76c-5.82,3-11.24,6.64-16.86,9.95-6,3.56-12,7.31-18,10.92-3.72,2.24-7.54,4.32-11.26,6.56-6.27,3.78-12.48,7.67-18.75,11.45-5.32,3.22-10.71,6.32-16,9.55-5.72,3.48-11.37,7.11-17.11,10.57-2.64,1.6-5.46,2.91-8.15,4.44-1.63.92-3.17,2-5,3.15-.73-2-2.55-3-4.13-3.92-4.74-2.66-9.42-5.41-14.1-8.17-6.56-3.87-13.17-7.65-19.7-11.58q-7-4.2-14.07-8.21c-7.3-4.14-14.59-8.28-21.71-12.72-4.87-3-10-5.71-14.93-8.57Q706,551.75,697,546.44C696.48,546.15,696.18,545.51,695.6,544.8Z" transform="translate(-695.08 -441.86)"/><path d="M910.79,524.94l6.8,4.08c-3.47,2.14-6.64,4-9.68,6-5.44,3.63-11.3,6.56-16.85,10-6.36,3.94-12.88,7.6-19.27,11.48q-7,4.21-14.07,8.23c-7.32,4.12-14.61,8.28-21.73,12.73-4.61,2.88-9.39,5.47-14.11,8.16s-9.2,5.17-13.77,7.8a9.61,9.61,0,0,0-1.56,1.53c-3.82.55-6.62-2.1-9.73-3.7s-6.11-3.66-9.27-5.34c-6-3.22-11.77-7-17.67-10.5-2.66-1.57-5.49-2.86-8.16-4.43-6-3.56-12.16-7-18.06-10.74-3.37-2.16-7.19-3.62-10.6-5.75-5.68-3.54-11.69-6.49-17.33-10.13-4.92-3.19-10.29-5.7-15.42-8.58-1.77-1-3.43-2.16-5.23-3.31l6.33-3.7c4.21,2.46,8,4.59,11.71,6.88,5.69,3.52,11.76,6.37,17.31,10.16,3.17,2.17,6.9,3.48,10.24,5.41,5.13,2.95,10.12,6.14,15.22,9.14,2.8,1.65,5.74,3.06,8.57,4.65,5.95,3.34,11.88,6.73,17.79,10.12,6.33,3.63,12.47,7.59,19,10.9a18.18,18.18,0,0,1,2.73,2.19c3.59-3.24,7.8-5.31,11.87-7.64,6.76-3.86,13.35-8,20.06-12,2.8-1.65,5.89-2.83,8.55-4.67,6.67-4.64,14.07-8,20.82-12.58,4.86-3.28,10.31-5.66,15.41-8.6s10.12-6.13,15.21-9.16S905.83,527.82,910.79,524.94Z" transform="translate(-695.08 -441.86)"/><path d="M938.05,515.27v18.54h-3.72c-.5-.46-.74-28.32-.14-40.65h3.7v16.6l.63.13,8.42-16.68h2.83c.09.38.31.76.21,1q-4,8.37-8,16.7c-.27.56-.56,1.11-.88,1.73l10.09,21.07-3.51.38c-3.09-6.5-6.08-12.76-9.06-19Z" transform="translate(-695.08 -441.86)"/><path d="M1080.25,521h3.6v9.85h8.92V520.46c-2.11-2.49-4.47-5.16-6.71-7.93-2.1-2.58-4.09-5.27-6-7.8v-9.29l2.71-2.51c4.16.64,8.82-1,13.18,1v10.89h-2.79v-8.7h-8.91v9.21c3.93,4.58,7.93,9.24,11.51,13.43,0,5.1,0,9.55,0,14,0,.35-.66.7-1.1,1.14h-12.24l-2.09-2.77Z" transform="translate(-695.08 -441.86)"/><path d="M1065.25,493.11h3.3l7.21,40.66a9.36,9.36,0,0,1-1.18.22c-.8,0-1.59,0-2.17,0-.53-3.12-1-5.92-1.49-8.85H1062a33.53,33.53,0,0,1,0,4.69,23.41,23.41,0,0,1-1.33,4.06h-2.25c-.14-.33-.4-.65-.35-.9,1-4.75,1.4-9.61,2.66-14.34.68-2.54.85-5.31,1.29-8s1.55-5.27,1-8.06c1.47-1.28.78-3,1-4.58S1064.77,495,1065.25,493.11Zm1.2,6.89c-1.27,8.2-2.32,15-3.38,21.91h7.22C1069.17,514.8,1068.89,507.74,1066.45,500Z" transform="translate(-695.08 -441.86)"/><path d="M989,509.5v21l-3.89,3.56h-7v10.7h-2.72c.1.09-.13,0-.13-.12,0-12.1,0-24.19,0-36.74,1,.23,2,.49,3,.7,2,.43,4,.76,6.07-.3A3.41,3.41,0,0,1,989,509.5Zm-10.83,3.64V530.9h6.41l1.31-1.26V511.09C983,510.71,980.57,511.71,978.15,513.14Z" transform="translate(-695.08 -441.86)"/><path d="M955.21,533.71l-1.2-1.2v-12c1.66-.89,3.25-1.83,5.33-1.58a46.08,46.08,0,0,0,5.53,0v-7.79h-7.66c-.1,1-.23,2.21-.38,3.61h-2.58v-4.61l2.7-2.12h10.17a11.87,11.87,0,0,1,.84,3c.07,7.49,0,15,0,22.88-2.26-.35-4.45-1.17-6.48-.87S957.59,534.43,955.21,533.71Zm1.87-2.7c2.95,0,5.58.43,7.93-1.53-.09-2.4.15-5-.12-7.31h-7.81Z" transform="translate(-695.08 -441.86)"/><path d="M1019.43,533.93l-1.39-1.39V520.59c3.16-2.69,7.09-1.09,10.8-1.77v-7.58h-7.73c-.07,1.11-.13,2.23-.2,3.55h-2.71c-.07-1.31-.16-2.86-.24-4.25l2.42-2.42h10.24l1.22,1.22v24.57c-2-.29-4.21-1.07-6.24-.78S1021.62,534.25,1019.43,533.93Zm1.73-11.85v8.76c2.86.33,5.53.52,7.67-1.24v-7.52Z" transform="translate(-695.08 -441.86)"/><path d="M1006,511.16l-2.85-.32v-2.61l2.77-.46v-7.56h2.85V508h5.14v2.87h-4.67v20h4.61c.06,1,.12,1.95.18,3h-5.54l-2.49-2.33Z" transform="translate(-695.08 -441.86)"/><path d="M1039.17,493.09h2.66v40.82h-2.66Z" transform="translate(-695.08 -441.86)"/><path d="M997.83,533.91h-2.66V508.09h2.66Z" transform="translate(-695.08 -441.86)"/><path d="M744.82,479.14l-2.66-.28V465.11h3.58c1,4.52-.79,9.33,1.2,13.95-.37.79-.81,1.76-1.5,3.27C745.21,481.11,745.05,480.33,744.82,479.14Z" transform="translate(-695.08 -441.86)"/><path d="M997.92,497.17v4.66h-2.67v-4.66Z" transform="translate(-695.08 -441.86)"/><path d="M811.92,483.16v18.42c-4.4,1.95-5.15,1.95-7.85,0V484.43l1.27-1.27Z" transform="translate(-695.08 -441.86)"/><path d="M783.15,502.83V494.1h7.66v7.46C788.57,503.49,785.8,503.14,783.15,502.83Z" transform="translate(-695.08 -441.86)"/><path d="M842.08,503v-8.84h7.81c.27,2.34,0,4.91.12,7.31C847.66,503.44,845,503,842.08,503Z" transform="translate(-695.08 -441.86)"/></svg>