<svg id="Layer_1" data-name="Layer 1" xmlns="http://www.w3.org/2000/svg" viewBox="0 0 257.51 194.26"><defs><style>.cls-1{fill:#fcfd03;}.cls-2{fill:#fafc03;}.cls-3{fill:#088380;}.cls-4{fill:#138989;}.cls-5{fill:#01807f;}</style></defs><path class="cls-1" d="M909.93,580.22c-4.36.56-6.14-1.65-7.62-5.64-9.95-26.74-20.19-53.38-30.38-80a52.08,52.08,0,0,0-2.39-4.86q-2.84-8.26-5.67-16.57l-1.28.29V574.64c0,6.54,0,6.54,6.8,6.19a16,16,0,0,0,3.38.13c4.1-.69,6.05.78,5.45,5.07.38,3.84-.86,5.27-5.17,5.11-10.44-.37-20.9,0-31.35,0a16.52,16.52,0,0,1-2-.17c-1.67-.32-4.61-.41-4.76-1.11a21.14,21.14,0,0,1,0-7.89c.08-.53,2.52-.94,3.89-1,10.19-.21,10.21-.18,10.19-10.51q-.07-54.74-.17-109.48c1.12-4.17-.62-5.65-4.67-5-.8.13-1.61.12-2.42.17-.66-.06-1.34-.06-2-.18-1.68-.32-4.63-.38-4.79-1.08a24,24,0,0,1-.13-7.9c0-.45,1.88-1,2.89-1,10.83-.07,21.66.12,32.48-.13,4-.09,3.46,3.34,5,5.18l38.44,101.13c1.11-3.08,1.82-5.07,2.54-7.05q13.41-33.51,26.83-67c2.34-5.86,4.71-11.71,6.94-17.61.63-1.68,2.37-3.21-.68-5.23-1.36-.91-.84-5.32-.33-8,.14-.75,3.28-1.27,5.05-1.29,13-.11,26,.18,38.92-.19,4.25-.12,5.65,1.18,5.27,5.1.7,4.58-1.61,5.72-5.66,5.12-1.47-.21-3,.18-4.49,0-3.58-.49-4.44,1.05-4.4,4.46.17,15.33.22,30.65,0,46-.07,4.1,1.47,4.93,4.94,4.15,15.39,1.14,15.39,1.14,20.87-12.88.73-1.86,1.79-3.65,2.16-5.57.89-4.51,3.52-5.37,7.81-5.38s7.31.83,8.44,5.31a4.46,4.46,0,0,0,.15,1q25.18,64.56,50.47,129.08c.43,1.08,1.86,1.77,2.82,2.64,3.5.12,7.79-.8,6.86,5.18.33,3.8-.87,5.27-5.19,5.14-11.58-.36-23.18,0-34.77,0-5.86.44-3.57-4-4-6.76-.59-3.66,1.8-3.5,4.26-3.43,2.76.07,5.52,0,9.08,0l-11.54-29c-.63-2.56-.89-5-4.76-5-17.78.18-35.56,0-53.34.15-1.23,0-3.19.78-3.56,1.7-4.28,10.51-8.32,21.12-12.55,32h6.07a13.54,13.54,0,0,0,2.9.13c4-.65,6.14.65,5.47,5,.32,3.73-.72,5.37-5.11,5.15-8.57-.43-17.18,0-25.77,0-5.87.41-3.61-4-4-6.82-.55-3.72,2-3.59,4.36-3.32,3.13.35,4.64-.79,5.71-3.89,2.93-8.45,6.31-16.74,9.52-25.1l2-4.87H948.93a16.52,16.52,0,0,1-2-.17c-1.64-.34-4.53-.47-4.69-1.18a21.36,21.36,0,0,1,0-7.89c.08-.52,2.56-.87,3.94-.9,10-.2,10-.17,10-10.23q-.13-36.19-.31-72.38V477a8.65,8.65,0,0,0-2.12,3.49C941.14,512.27,928.47,544.08,916,576,914.77,579.13,913.19,580.56,909.93,580.22ZM998.07,526c2.52-5.07,2.52-5.07-3.08-5.08a77.3,77.3,0,0,0-8.48.11c-1,.12-2.67,1.47-2.68,2.27-.17,12.4-.12,24.81-.12,37.21l1.12.25q2.07-5.68,4.13-11.38Q993.52,537.7,998.07,526Zm-3.13,54.83h45.67c-7.64-18.9-15-37-22.29-55.09-1.18-3.17-2.36-6.35-3.9-10.46-8.73,22.42-17.08,43.85-25.54,65.55Z" transform="translate(-834.57 -445.85)"/><path class="cls-2" d="M1076.68,580.83a19.62,19.62,0,0,0,4.39.11c4.3-.84,5.41,1.31,5.1,5,.28,3.72-.74,5.78-5.17,5.11-3.24-.49-6.64.11-9.92-.2-1.33-.12-3.28-1.07-3.7-2.13-5.64-14.31-11.07-28.71-16.55-43.08V526c1.12-4.16-.55-5.74-4.66-5s-6.54-.69-7.34-4.91a38.29,38.29,0,0,0-1.69-5.08l13.57-.21,0,0q.08-24.87.17-49.74c1.16-4.26-.72-5.59-4.75-5a37.81,37.81,0,0,1-4.4.19c-4.35-.34-7.18-5.7-4.72-9.26.48-.69,2-.92,3-.92,14.3-.06,28.6.1,42.9-.13,4.54-.07,2.62,3.11,3.27,5.06.7,4.57-1.61,5.73-5.66,5.11-1.3-.2-2.69.14-4-.07-4-.63-4.92,1.07-4.91,4.92q.21,57.72,0,115.44C1071.58,580.55,1072.9,581.71,1076.68,580.83Z" transform="translate(-834.57 -445.85)"/><path class="cls-3" d="M909.93,580.22c3.26.34,4.84-1.09,6.08-4.26,12.46-31.88,25.13-63.69,37.75-95.51a8.65,8.65,0,0,1,2.12-3.49v21.46q-12.42,30.91-24.83,61.84c-2.71,6.78-5.87,13.43-7.88,20.41-1.5,5.2-4.93,4.14-8.47,4.45C910.8,585.46,910.54,582.8,909.93,580.22Z" transform="translate(-834.57 -445.85)"/><path class="cls-4" d="M1076.68,580.83c-3.78.88-5.1-.28-5.08-4.46q.26-57.72,0-115.44c0-3.85.9-5.55,4.91-4.92,1.3.21,2.69-.13,4,.07,4,.62,6.36-.54,5.66-5.11,4.43-.93,5.08,1.27,5,5.16-.08,3.59-.56,5.2-4.79,5.06-9.67-.32-9.68-.06-9.68,9.86Q1076.7,525.93,1076.68,580.83Z" transform="translate(-834.57 -445.85)"/><path class="cls-5" d="M869.39,580.83c-6.8.35-6.8.35-6.8-6.19V473.4l1.28-.29q2.83,8.29,5.67,16.57Q869.47,535.23,869.39,580.83Z" transform="translate(-834.57 -445.85)"/><path class="cls-3" d="M916.17,545.17c-.72,2-1.43,4-2.54,7.05L875.19,451.09c4-1.08,5.42,1.1,6.7,4.47Q898.9,500.41,916.17,545.17Z" transform="translate(-834.57 -445.85)"/><path class="cls-3" d="M977.8,624.83h-6.07c4.23-10.88,8.27-21.49,12.55-32,.37-.92,2.33-1.69,3.56-1.7,17.78-.11,35.56,0,53.34-.15,3.87,0,4.13,2.42,4.76,5-17.43,0-34.87.19-52.3,0-3.83,0-5.5,1.27-6.71,4.74C984.1,608.8,980.87,616.79,977.8,624.83Z" transform="translate(-834.57 -445.85)"/><path class="cls-4" d="M1037.14,510.94a38.29,38.29,0,0,1,1.69,5.08c.8,4.22,3.34,5.58,7.34,4.91s5.78.88,4.66,5h-8.13l8.13,19.7c5.48,14.37,10.91,28.77,16.55,43.08.42,1.06,2.37,2,3.7,2.13,3.28.31,6.68-.29,9.92.2,4.43.67,5.45-1.39,5.17-5.11,4.41-.92,5.08,1.26,5,5.15-.07,3.62-.6,5.46-4.8,5-3.78-.41-7.65.09-11.46-.13-3.54-.21-4.76.35-3.1,4.26,3.42,8.08,6.33,16.37,9.45,24.58-1-.87-2.39-1.56-2.82-2.64q-25.32-64.52-50.47-129.08a4.46,4.46,0,0,1-.15-1c1,1,2.42,1.91,3,3.16C1033.05,500.45,1035.05,505.72,1037.14,510.94Z" transform="translate(-834.57 -445.85)"/><path class="cls-4" d="M988.54,510.65c-3.47.78-5,0-4.94-4.15.24-15.33.19-30.65,0-46,0-3.41.82-4.95,4.4-4.46,1.47.2,3-.19,4.49,0,4,.6,6.36-.54,5.66-5.12,4.44-.92,5.08,1.3,5,5.18-.08,3.6-.57,5.17-4.79,5.06-9.67-.25-9.66,0-9.68,10Q988.64,490.92,988.54,510.65Z" transform="translate(-834.57 -445.85)"/><path class="cls-5" d="M841.7,591.17c10.45,0,20.91-.4,31.35,0,4.31.16,5.55-1.27,5.17-5.11,7.08-.07,6.87-.07,6.9,6.66,0,3.16-1.34,3.38-3.85,3.36-11.61-.1-23.23-.24-34.83.06C842.43,596.21,841.09,594.93,841.7,591.17Z" transform="translate(-834.57 -445.85)"/><path class="cls-5" d="M1048.16,635.17c11.59,0,23.19-.38,34.77,0,4.32.13,5.52-1.34,5.19-5.14,6-.84,3.27,3.71,3.79,6.17.63,3-.64,3.94-3.75,3.9-11.76-.19-23.52-.27-35.28,0C1048.88,640.2,1047.51,639,1048.16,635.17Z" transform="translate(-834.57 -445.85)"/><path class="cls-5" d="M955.29,635.17c8.59,0,17.2-.45,25.77,0,4.39.22,5.43-1.42,5.11-5.15,6.29-.7,3.21,4.08,3.79,6.62.83,3.64-1.68,3.42-4.11,3.4-8.61,0-17.22-.25-25.81.08C956,640.26,954.63,639,955.29,635.17Z" transform="translate(-834.57 -445.85)"/><path class="cls-5" d="M948.93,591.17h23.91l-2,4.87c-5.77,0-11.56-.33-17.3.06C949.43,596.39,948.36,594.79,948.93,591.17Z" transform="translate(-834.57 -445.85)"/><path class="cls-3" d="M1041.68,456.22a37.81,37.81,0,0,0,4.4-.19c4-.58,5.91.75,4.75,5a30.13,30.13,0,0,0-4.46,0C1042.4,461.69,1040.93,460.08,1041.68,456.22Z" transform="translate(-834.57 -445.85)"/><path class="cls-3" d="M841.76,456.22c.81-.05,1.62,0,2.42-.17,4.05-.66,5.79.82,4.67,5a14.53,14.53,0,0,0-2.47,0C842.37,461.77,841,460,841.76,456.22Z" transform="translate(-834.57 -445.85)"/><path class="cls-4" d="M1050.66,510.78l0,0Z" transform="translate(-834.57 -445.85)"/><path class="cls-3" d="M1018.32,525.74c-1,.88-2.61,1.54-3,2.65-6.87,17.45-13.59,35-20.34,52.44h-6.06c8.46-21.7,16.81-43.13,25.54-65.55C1016,519.39,1017.14,522.57,1018.32,525.74Z" transform="translate(-834.57 -445.85)"/><path class="cls-4" d="M989,549.38q-2.06,5.68-4.13,11.38l-1.12-.25c0-12.4-.05-24.81.12-37.21,0-.8,1.67-2.15,2.68-2.27a77.3,77.3,0,0,1,8.48-.11c5.6,0,5.6,0,3.08,5.08a42.56,42.56,0,0,1-5.42-.07c-3.44-.46-4.13,1.14-4,4.2C988.92,536.54,988.88,543,989,549.38Z" transform="translate(-834.57 -445.85)"/></svg>