<svg id="Layer_1" data-name="Layer 1" xmlns="http://www.w3.org/2000/svg" viewBox="0 0 608.22 349.38"><defs><style>.cls-1{fill:#fefe00;}.cls-2{fill:#01c7c7;}.cls-3{fill:#4efe8b;}.cls-4{fill:teal;}.cls-5{fill:#fee300;}</style></defs><path class="cls-1" d="M886.11,551l31.73,0q0,25.5,0,51l-92.93,0c-26.49,0-53,.06-79.46-.15-4,0-4.52,1.32-4.51,4.82.11,45.64,0,91.28.18,136.92,0,4.34-.94,5.53-5.41,5.48-24.48-.25-49-.2-73.46,0-3.89,0-5.36-.56-5.35-5q.21-167.66,0-335.31c0-4,1.18-4.88,5-4.85,24.82.16,49.64.05,74.46.16,1.58,0,4.24-1.57,4.7,1.81V519.11c0,9.44.07,18.89-.11,28.33-.05,2.82.8,3.67,3.62,3.62,9.44-.18,18.89-.09,28.33-.11Z" transform="translate(-656.89 -403.72)"/><path class="cls-2" d="M1180.9,406c0-2.34,1.73-2,3.17-2,25.82,0,51.65.1,77.47-.1,4.28,0,3.45,2.41,3.45,4.78q0,45.24,0,90.47,0,122,.11,243.9c0,4.59-.75,6.15-5.8,6.09-24.66-.31-49.32-.21-74-.06-3.49,0-4.45-.86-4.42-4.39.15-25.65,0-51.31.15-77,0-3.45-.45-4.83-4.48-4.83-46,.07-92-.09-137.94-.17-1.5,0-3,.19-4.48.29l-32-.78q0-11.64,0-23.26h56.81q59.43.24,118.86.54c3.39,0,3.22-1.8,3.22-4.09q-.09-58.68-.11-117.38Q1180.91,462,1180.9,406Z" transform="translate(-656.89 -403.72)"/><path class="cls-3" d="M1002.13,639q0,11.63,0,23.25,0,18.1-.08,36.22c0,16.63-.18,33.27,0,49.9,0,3.64-.81,4.78-4.64,4.75q-37.43-.27-74.85,0c-3.76,0-4.72-1-4.69-4.7.15-17.8,0-35.6-.07-53.39q0-46.5,0-93,0-25.5,0-51,.07-30,.15-59.92,0-39.21,0-78.41c0-3,.13-4.8,4.1-4.77q38,.28,75.91,0c4.63,0,4,2.45,4,5.29q0,81.9,0,163.81c0,2,.07,4,.1,6Z" transform="translate(-656.89 -403.72)"/><path class="cls-4" d="M1002.13,639l0-56q18.45-18.24,36.9-36.49c8-8,15.85-16.21,24.07-24,39.53-37.44,77.14-76.8,115.94-115,.58-.57,1.26-1,1.89-1.56q0,56,0,112.09c-1.23,1.07-2.53,2.08-3.68,3.24-32.81,32.79-65.52,65.69-98.49,98.32-6.56,6.48-13.72,12.37-19.8,19.36Z" transform="translate(-656.89 -403.72)"/><path class="cls-5" d="M886.11,551H772.89q-15.23-16.62-31.84-31.84V405.89c.87.76,1.8,1.46,2.61,2.27q70.1,70.08,140.18,140.18C884.65,549.15,885.35,550.08,886.11,551Z" transform="translate(-656.89 -403.72)"/><path class="cls-5" d="M917.83,602q0,46.5,0,93c-14.14-14-28.33-28-42.4-42.09q-25.35-25.35-50.54-50.86Z" transform="translate(-656.89 -403.72)"/><path class="cls-4" d="M1002.1,698.44q0-18.11.08-36.22l32,.79C1023.41,674.76,1013.83,687.57,1002.1,698.44Z" transform="translate(-656.89 -403.72)"/></svg>