<svg id="Layer_1" data-name="Layer 1" xmlns="http://www.w3.org/2000/svg" viewBox="0 0 1299.91 746.41"><path d="M1056.39,576.78c2.62-2.46,5.32-4.86,7.87-7.4,20-20,40-40.17,60.12-60.07q54.42-53.68,109.08-107.14c33.51-32.92,67.18-65.67,100.43-98.85,25.22-25.17,49.82-51,74.82-76.37,7.69-7.82,15.49-15.58,23.84-22.66,2.68-2.27,7.26-3.08,11-3.17,15.32-.34,30.66-.15,46-.15h105c3,0,6-.11,9,.15,7.77.68,9.65,2.72,10.08,10.7.14,2.66.06,5.33.06,8V919.75c0,19.11-.43,19.53-19.66,19.54H1450c-2.34,0-4.67.07-7,0-8.8-.42-10.88-2.51-11.41-11.55-.18-3-.09-6-.09-9q0-73.5,0-147c0-15.48-.9-16.4-16.45-16.4-93.64,0-187.28.1-280.92-.2-9.38,0-15.23,3.51-21.09,10.44-17,20.07-34.54,39.66-52.3,59-4.84,5.28-7.39,10.48-7.33,17.71.27,29,.11,58,.1,87,0,3,.12,6-.15,9-.6,6.45-2.26,8.11-8.6,8.76a67.83,67.83,0,0,1-7,.15q-75,0-150,0c-15.7,0-16.29-.6-16.3-16.35,0-31.66-.23-63.33.14-95,.09-8.32-2.43-14.39-8.36-20.27q-76.67-76-152.9-152.5c-10.37-10.36-20.81-20.67-30.93-31.28a20.27,20.27,0,0,0-15.89-6.7c-51,.16-102,.06-153,.11-11.43,0-14.1,2.53-14.67,13.94a141.18,141.18,0,0,0,.57,15c.29,5,1.06,9.94,1.06,14.92q.11,124,0,248a88.62,88.62,0,0,1-1.1,13.9c-.85,5.26-4.19,8.14-9.71,8.17-2.33,0-4.66.1-7,.1q-74,0-147.95,0c-15.51,0-17.74-2.25-18.07-17.92-.05-2.67,0-5.33,0-8q0-343.47,0-686.93c0-5-.12-10,.67-14.95,1.08-6.78,4.65-9.63,11.53-10.27,2.32-.22,4.66-.14,7-.14,49.32,0,98.64.17,148-.17,8.35,0,14.33,2.48,20.2,8.37q149.64,150.12,299.53,300c3.51,3.52,6.93,5.78,12.07,5.72,16.33-.18,32.66.06,49-.11,8.49-.09,9.59-1.32,9.74-10.09.18-10.33.06-20.67.06-31q0-123,0-246c0-17,1.69-18.85,19-18.63,34.29.44,68.56,1.44,102.85,1.69,14,.11,27.9-1.17,41.86-1.71a44,44,0,0,1,9,.45c6.34,1.07,8.6,3.54,9.14,9.93.31,3.65.16,7.33.17,11V576Zm374.55-123-2.55-1.17c-3.4,3-7,5.83-10.18,9q-102.49,102.42-205,204.87c-8.47,8.45-17.57,16.28-26.15,24.63-2.89,2.82-5.09,6.36-8.78,11.07,5.55.27,8.79.55,12,.55q112.91.12,225.8.19c2.33,0,4.67.09,7-.1,6.67-.53,7.8-1.73,8.31-8.62.13-1.65.08-3.33.08-5q0-112.92,0-225.85C1431.51,460.21,1431.14,457,1430.94,453.8Zm-931.63.05c-1,3.33-1.47,4.27-1.49,5.21-.24,16-.52,32-.54,48,0,5.72,1.89,7.66,8.06,7.72,16.32.16,32.64,0,49-.18.85,0,1.68-.75,3.65-1.68C540.22,491.55,521,472.68,499.31,453.85Z" transform="translate(-313.76 -200.79)"/></svg>