<svg id="Layer_1" data-name="Layer 1" xmlns="http://www.w3.org/2000/svg" viewBox="0 0 1297.83 745.82"><defs><style>.cls-1{fill:#b2b2b2;}.cls-2{fill:#9f9f9f;}.cls-3{fill:#b8b8b8;}.cls-4{fill:#666;}.cls-5{fill:#a5a5a5;}.cls-6{fill:#676767;}</style></defs><path class="cls-1" d="M801.52,511.33c3.21,3.58,7.45,3.7,11.82,3.68,19.41-.08,38.83-.09,58.25-.13,0,8.61-.15,17.23.07,25.83.75,28.76-2,57.61,2,86.29a30.63,30.63,0,0,0-15.21-4q-84.72.1-169.43,0c-4.73,0-9.32.36-13.1,3.69-4.09-1.87-8.44-1.7-12.77-1.7h-152a59.75,59.75,0,0,0-6,.13c-6.47.65-8.71,2.78-9.33,9.41-.38,4-.23,8-.23,12q.09,136.49.2,273c0,19-.45,19.48-19.74,19.49h-141c-3,0-6,.13-9-.11-7.49-.61-9.82-3-10.35-10.64-.21-3-.13-6-.13-9q0-349,0-697.93c0-16.39-3.41-19.44,19.69-19.72,50.31-.62,100.64-.12,151-.39,6.06,0,9.22,2.72,11.8,7.35-2.85,4.14-2.4,8.88-2.41,13.52q0,107.32,0,214.64c0,5,.08,10,1.89,14.76-1.74,2.26-1.74,4.94-1.74,7.58,0,15.23-.15,30.45,0,45.67.09,8.67,1.94,10.4,10.66,10.43,14.55.05,29.11-.07,43.66-.17,3.27,0,6.68.4,9.48-2,5.94,3.57,12.46,4,19.21,4q103.64-.12,207.26,0c2.66,0,5.31-.06,8-.18C797.76,516.64,800.42,515,801.52,511.33Z" transform="translate(-315.49 -201.2)"/><path class="cls-2" d="M1431.68,207.15c2.38-4.93,6.94-4.46,11.25-4.47q26,0,52,0h100.94c2,0,4,0,6,0,10.08.28,11.2,1.44,11.44,11.79.06,2.67,0,5.33,0,8V916.18a124.74,124.74,0,0,1-.26,13c-.72,6.85-3.38,9.22-10.28,9.77-2.32.19-4.67.1-7,.1H1448.84c-1,0-2,0-3,0-11.26-.2-12.46-1.29-12.47-12.86q-.11-75.46,0-150.94c0-19.49-.71-20.18-20.25-20.18q-138.91,0-277.83,0c-5.28,0-10.71-.84-15.66,1.94-3.84-4-8.91-3.71-13.82-3.76-17.42-.18-34.84-.29-52.26-.42,1.36-16.67-3-33.11-2-49.77,4.42,1.83,9.09,1.73,13.75,1.73H1162c4.67,0,9.31-.06,13.74-1.81,41.91.9,83.8-.48,125.74,1.31,39.21,1.68,78.54.36,117.83.36a48.56,48.56,0,0,0,5-.14c6.38-.7,8.18-2.43,8.85-8.59a56.91,56.91,0,0,0,.14-6q0-114.87,0-229.74c0-3.95.56-8.05-1.94-11.61,2.29-3.93,2.19-8.26,2.19-12.59q0-108.61,0-217.23C1433.53,214.82,1434.08,210.73,1431.68,207.15Z" transform="translate(-315.49 -201.2)"/><path class="cls-3" d="M1051.56,703.05c-1,16.66,3.31,33.1,2,49.77-2,3-1.75,6.34-1.76,9.64q-.11,34.35-.16,68.7,0,51.44.05,102.85a52.24,52.24,0,0,1-.36,7,6.13,6.13,0,0,1-5.94,5.71c-3,.27-6,.32-9,.32H888.61c-1,0-2,0-3,0-12-.22-13.83-2-13.87-14.1q-.18-54.93-.17-109.84c2.78-4.57,2-9.67,2-14.6q.06-90.74,0-181.47c-4-28.68-1.21-57.53-2-86.29-.22-8.6-.06-17.22-.07-25.83q.06-141.94.12-283.88a108.57,108.57,0,0,1,.22-11c.6-6.05,2.75-8.19,8.73-9a62.42,62.42,0,0,1,8-.26q74,0,147.9,0c2,0,4,0,6,.12,7.06.59,8.5,2.07,9,9.2.11,1.32.08,2.66.08,4q0,179.43-.07,358.85Z" transform="translate(-315.49 -201.2)"/><path class="cls-4" d="M1051.56,703.05l0-120.1c3.76-1.73,6.2-5,9-7.79q29.4-29.26,58.67-58.66c67.08-67.65,137-132.42,203.57-200.58,14.43-14.77,28.75-29.65,43.32-44.28,21.62-21.71,43-43.64,65.52-64.49,2.4,3.58,1.85,7.67,1.85,11.61q0,108.62,0,217.23c0,4.33.1,8.66-2.19,12.59-4.66,4.27-9.5,8.36-14,12.82Q1317,561.73,1216.61,662.14c-4.94,4.93-10.45,9.33-15.2,14.43-8.36,9-19,15.71-25.63,26.41-4.43,1.75-9.07,1.82-13.74,1.81h-96.73C1060.65,704.78,1056,704.88,1051.56,703.05Z" transform="translate(-315.49 -201.2)"/><path class="cls-5" d="M497.58,451.47c-1.81-4.77-1.89-9.75-1.89-14.76q0-107.32,0-214.64c0-4.64-.44-9.38,2.41-13.52,39.12,39.08,77.92,78.5,117.45,117.16,59.29,58,117.87,116.7,176.52,175.34,3.29,3.28,6.3,6.85,9.44,10.28-1.1,3.69-3.76,5.31-7.43,5.48-2.66.12-5.31.18-8,.18q-103.64,0-207.26,0c-6.75,0-13.27-.46-19.21-4-6.24-4.1-9.47-10.94-14.76-16C529.08,481.87,514.15,465.83,497.58,451.47Z" transform="translate(-315.49 -201.2)"/><path class="cls-5" d="M873.62,627q0,90.74,0,181.47c0,4.93.75,10-2,14.6-9.77-9.48-19.66-18.84-29.3-28.46q-68.13-68-136.13-136.18c-10.31-10.35-20.19-21.14-30.26-31.72,3.78-3.33,8.37-3.7,13.1-3.69q84.72,0,169.43,0A30.63,30.63,0,0,1,873.62,627Z" transform="translate(-315.49 -201.2)"/><path class="cls-6" d="M1051.59,831.16q.08-34.35.16-68.7c0-3.3-.19-6.67,1.76-9.64,17.42.13,34.84.24,52.26.42,4.91,0,10-.29,13.82,3.76-15.53,17.79-31,35.66-46.62,53.33C1066.37,817.78,1059.62,825.14,1051.59,831.16Z" transform="translate(-315.49 -201.2)"/></svg>